<?xml version="1.0" encoding="UTF-8"?> <svg xmlns="http://www.w3.org/2000/svg" xmlns:xlink="http://www.w3.org/1999/xlink" viewBox="0 0 166.91 210.24"><defs><style>.cls-1{isolation:isolate;}.cls-2{fill:url(#Безымянный_градиент_16);}.cls-13,.cls-17,.cls-20,.cls-24,.cls-27,.cls-29,.cls-3,.cls-6{mix-blend-mode:lighten;}.cls-4{fill:url(#Безымянный_градиент_89);}.cls-5{fill:#251c72;}.cls-13,.cls-17,.cls-20,.cls-27,.cls-28,.cls-6{opacity:0.5;}.cls-6{fill:url(#Безымянный_градиент_23);}.cls-7,.cls-8{fill:#42e8e0;}.cls-8{opacity:0.6;}.cls-9{fill:url(#Безымянный_градиент_16-2);}.cls-10{fill:url(#Безымянный_градиент_85);}.cls-11{fill:url(#Безымянный_градиент_16-3);}.cls-12{fill:#2eaeb8;}.cls-13{fill:url(#Безымянный_градиент_23-2);}.cls-14{fill:#bcbeff;}.cls-15{fill:url(#Безымянный_градиент_16-4);}.cls-16{fill:url(#Безымянный_градиент_89-2);}.cls-17{fill:url(#Безымянный_градиент_8);}.cls-18{fill:url(#Безымянный_градиент_16-5);}.cls-19{fill:url(#Безымянный_градиент_89-3);}.cls-20{fill:url(#Безымянный_градиент_23-3);}.cls-21{opacity:0.8;fill:url(#Безымянный_градиент_160);}.cls-22{fill:url(#Безымянный_градиент_41);}.cls-23{fill:url(#Безымянный_градиент_41-2);}.cls-24{fill:url(#Безымянный_градиент_116);}.cls-25{fill:url(#Безымянный_градиент_16-6);}.cls-26{fill:url(#Безымянный_градиент_89-4);}.cls-27{fill:url(#Безымянный_градиент_23-4);}.cls-29{opacity:0.3;}</style><radialGradient id="Безымянный_градиент_16" cx="-725" cy="-116.64" r="36.2" gradientTransform="matrix(-0.96, 0.29, 0.29, 0.96, -515, 443.73)" gradientUnits="userSpaceOnUse"><stop offset="0" stop-color="#c0bff6"></stop><stop offset="1" stop-color="#393091"></stop></radialGradient><linearGradient id="Безымянный_градиент_89" x1="-742.06" y1="-93.11" x2="-720.66" y2="-116.22" gradientTransform="matrix(-0.96, 0.29, 0.29, 0.96, -515, 443.73)" gradientUnits="userSpaceOnUse"><stop offset="0" stop-color="#2fd3c7"></stop><stop offset="0.09" stop-color="#31b6bd"></stop><stop offset="0.23" stop-color="#338db0"></stop><stop offset="0.37" stop-color="#356ba5"></stop><stop offset="0.52" stop-color="#37519c"></stop><stop offset="0.67" stop-color="#383f96"></stop><stop offset="0.83" stop-color="#393492"></stop><stop offset="1" stop-color="#393091"></stop></linearGradient><radialGradient id="Безымянный_градиент_23" cx="2431.33" cy="3334.48" r="23.49" gradientTransform="matrix(0.09, -1, -1, -0.09, 3257.12, 2843.44)" gradientUnits="userSpaceOnUse"><stop offset="0" stop-color="#42e8e0"></stop><stop offset="0.11" stop-color="#37b6bf"></stop><stop offset="0.22" stop-color="#2c87a1"></stop><stop offset="0.34" stop-color="#235f87"></stop><stop offset="0.46" stop-color="#1c3f72"></stop><stop offset="0.58" stop-color="#162561"></stop><stop offset="0.71" stop-color="#121355"></stop><stop offset="0.85" stop-color="#10084e"></stop><stop offset="1" stop-color="#0f054c"></stop></radialGradient><radialGradient id="Безымянный_градиент_16-2" cx="-366.57" cy="-273.63" r="110.78" gradientTransform="matrix(-1, 0.09, 0.09, 1, -300.85, 327.68)" xlink:href="#Безымянный_градиент_16"></radialGradient><linearGradient id="Безымянный_градиент_85" x1="-612.09" y1="192.42" x2="-573.71" y2="192.42" gradientTransform="matrix(0.71, -0.71, -0.71, -0.71, 678.57, -192.48)" gradientUnits="userSpaceOnUse"><stop offset="0" stop-color="#706ec4"></stop><stop offset="0.02" stop-color="#6d6bc2"></stop><stop offset="0.25" stop-color="#5651ac"></stop><stop offset="0.49" stop-color="#463f9d"></stop><stop offset="0.73" stop-color="#3c3494"></stop><stop offset="1" stop-color="#393091"></stop></linearGradient><radialGradient id="Безымянный_градиент_16-3" cx="585.28" cy="219.45" r="109.44" gradientTransform="matrix(-0.78, 0, 0, 1.06, 503.3, -117.02)" xlink:href="#Безымянный_градиент_16"></radialGradient><radialGradient id="Безымянный_градиент_23-2" cx="15.54" cy="115.9" r="65.91" gradientTransform="matrix(-1, 0, 0, 1, 93.98, 0)" xlink:href="#Безымянный_градиент_23"></radialGradient><radialGradient id="Безымянный_градиент_16-4" cx="50.35" cy="43.05" r="85.41" gradientTransform="matrix(-1, 0, 0, 1, 93.98, 0)" xlink:href="#Безымянный_градиент_16"></radialGradient><linearGradient id="Безымянный_градиент_89-2" x1="11.78" y1="100.59" x2="25.85" y2="0.49" gradientTransform="matrix(-1, 0, 0, 1, 93.98, 0)" xlink:href="#Безымянный_градиент_89"></linearGradient><radialGradient id="Безымянный_градиент_8" cx="3.08" cy="55.2" r="41.95" gradientTransform="matrix(-0.38, -0.92, -0.92, 0.38, 159.56, 28.57)" gradientUnits="userSpaceOnUse"><stop offset="0" stop-color="#42e8e0"></stop><stop offset="0.06" stop-color="#3ccbcd"></stop><stop offset="0.18" stop-color="#3098ac"></stop><stop offset="0.3" stop-color="#266b8f"></stop><stop offset="0.42" stop-color="#1e4777"></stop><stop offset="0.54" stop-color="#172a65"></stop><stop offset="0.66" stop-color="#131657"></stop><stop offset="0.78" stop-color="#100a50"></stop><stop offset="0.9" stop-color="#0f064d"></stop><stop offset="1" stop-color="#0f054c"></stop></radialGradient><radialGradient id="Безымянный_градиент_16-5" cx="-328.03" cy="-182.93" r="40.04" gradientTransform="matrix(-0.99, 0.13, 0.13, 0.99, -288.74, 350.02)" xlink:href="#Безымянный_градиент_16"></radialGradient><linearGradient id="Безымянный_градиент_89-3" x1="-349.79" y1="-154.36" x2="-323.71" y2="-182.52" gradientTransform="matrix(-0.99, 0.13, 0.13, 0.99, -288.74, 350.02)" xlink:href="#Безымянный_градиент_89"></linearGradient><radialGradient id="Безымянный_градиент_23-3" cx="77.68" cy="140.59" r="35.76" gradientTransform="matrix(-0.87, -0.5, -0.5, 0.87, 154.9, 59.88)" xlink:href="#Безымянный_градиент_23"></radialGradient><radialGradient id="Безымянный_градиент_160" cx="48.9" cy="-1766.75" r="33.7" gradientTransform="matrix(-1, 0, 0, 1.28, 93.98, 2297.37)" gradientUnits="userSpaceOnUse"><stop offset="0" stop-color="#2b237c"></stop><stop offset="0.31" stop-color="#251c72"></stop><stop offset="1" stop-color="#0f054c"></stop></radialGradient><linearGradient id="Безымянный_градиент_41" x1="75.4" y1="73.02" x2="27.48" y2="87.6" gradientTransform="matrix(-1, 0, 0, 1, 93.98, 0)" gradientUnits="userSpaceOnUse"><stop offset="0" stop-color="#bcbeff"></stop><stop offset="0.15" stop-color="#a3a7f5"></stop><stop offset="0.39" stop-color="#8289e8"></stop><stop offset="0.61" stop-color="#6a73df"></stop><stop offset="0.82" stop-color="#5c66d9"></stop><stop offset="1" stop-color="#5761d7"></stop></linearGradient><linearGradient id="Безымянный_градиент_41-2" x1="67.11" y1="76.06" x2="1.44" y2="83.89" xlink:href="#Безымянный_градиент_41"></linearGradient><linearGradient id="Безымянный_градиент_116" x1="57.26" y1="95.37" x2="91.48" y2="38.78" gradientTransform="matrix(-1, 0, 0, 1, 93.98, 0)" gradientUnits="userSpaceOnUse"><stop offset="0" stop-color="#42e8e0"></stop><stop offset="0.12" stop-color="#42e2de"></stop><stop offset="0.27" stop-color="#41d3d7"></stop><stop offset="0.44" stop-color="#40b9cc"></stop><stop offset="0.62" stop-color="#3e94bc"></stop><stop offset="0.81" stop-color="#3c66a8"></stop><stop offset="1" stop-color="#393091"></stop></linearGradient><radialGradient id="Безымянный_градиент_16-6" cx="-581.7" cy="-98.01" r="36.2" xlink:href="#Безымянный_градиент_16"></radialGradient><linearGradient id="Безымянный_градиент_89-4" x1="-598.76" y1="-74.48" x2="-577.36" y2="-97.59" xlink:href="#Безымянный_градиент_89"></linearGradient><radialGradient id="Безымянный_градиент_23-4" cx="2360.68" cy="3460.54" r="23.49" xlink:href="#Безымянный_градиент_23"></radialGradient></defs><title>robo_1</title><g class="cls-1"><g id="Слой_2" data-name="Слой 2"><g id="Слой_1-2" data-name="Слой 1"><path class="cls-2" d="M141.33,133.08c2,6.74,12.93,19.84,19.67,17.81s6.76-18.42,4.73-25.16a12.74,12.74,0,1,0-24.4,7.35Z"></path><g class="cls-3"><path class="cls-4" d="M141.33,133.08c2,6.74,12.93,19.84,19.67,17.81s6.76-18.42,4.73-25.16a12.74,12.74,0,1,0-24.4,7.35Z"></path></g><path class="cls-5" d="M154.3,117.28a12.34,12.34,0,0,0-10.11,4.7c-2,2.9-.83,5.52,2.71,5.83A12.29,12.29,0,0,0,157,123.12C159.06,120.21,157.84,117.6,154.3,117.28Z"></path><path class="cls-6" d="M154.3,117.28a12.34,12.34,0,0,0-10.11,4.7c-2,2.9-.83,5.52,2.71,5.83A12.29,12.29,0,0,0,157,123.12C159.06,120.21,157.84,117.6,154.3,117.28Z"></path><path class="cls-7" d="M158,120.58a4.82,4.82,0,0,0-2.7-1,12.31,12.31,0,0,0-10.11,4.69,5,5,0,0,0-1,2.54c-1.29-1.08-1.39-2.9,0-4.85a12.34,12.34,0,0,1,10.11-4.7C156.76,117.5,158.09,118.82,158,120.58Z"></path><path class="cls-8" d="M142.43,113.84a1,1,0,1,1,0,2,1,1,0,0,1-1-1A1,1,0,0,1,142.43,113.84Z"></path><path class="cls-7" d="M151.9,106.84a2.54,2.54,0,1,1-2.48,2.6A2.54,2.54,0,0,1,151.9,106.84Z"></path><path class="cls-8" d="M137.39,101.13a1.42,1.42,0,1,1,.06,2.84,1.42,1.42,0,1,1-.06-2.84Z"></path><path class="cls-7" d="M143.06,102.26a1,1,0,1,1-.94,1A1,1,0,0,1,143.06,102.26Z"></path><path class="cls-7" d="M142,100.08a.67.67,0,1,1-.65.68A.66.66,0,0,1,142,100.08Z"></path><path class="cls-8" d="M150.17,118.77a1.41,1.41,0,1,1-1.37,1.44A1.42,1.42,0,0,1,150.17,118.77Z"></path><path class="cls-7" d="M145.91,118.31a2.1,2.1,0,1,1-2.06,2.15A2.1,2.1,0,0,1,145.91,118.31Z"></path><circle class="cls-9" cx="123.28" cy="90.68" r="19.19" transform="translate(-8.46 12.81) rotate(-5.75)"></circle><g class="cls-3"><circle class="cls-10" cx="123.28" cy="90.68" r="19.19" transform="translate(8.07 191.4) rotate(-77.5)"></circle></g><path class="cls-11" d="M27.58,125.52c0,37.26,22.18,67.46,49.55,67.46s49.55-30.2,49.55-67.46S104.49,77.11,77.13,77.11,27.58,88.27,27.58,125.52Z"></path><g class="cls-3"><path class="cls-12" d="M27.58,125.52c0,37.26,22.18,67.46,49.55,67.46s49.55-30.2,49.55-67.46S104.49,77.11,77.13,77.11,27.58,88.27,27.58,125.52Z"></path></g><ellipse class="cls-5" cx="77.13" cy="97.14" rx="33.82" ry="19.52"></ellipse><ellipse class="cls-13" cx="77.13" cy="97.14" rx="33.82" ry="19.52"></ellipse><path class="cls-7" d="M101,88.53c-13.2-7.62-34.62-7.62-47.82,0-5.46,3.15-8.65,7.11-9.6,11.21-1.35-5.83,1.85-11.93,9.6-16.41,13.2-7.62,34.62-7.62,47.82,0,7.75,4.48,10.95,10.58,9.6,16.41C109.69,95.64,106.5,91.68,101,88.53Z"></path><ellipse class="cls-14" cx="106.15" cy="33.23" rx="11.65" ry="20.17" transform="translate(-2.4 57.53) rotate(-30)"></ellipse><circle class="cls-15" cx="75.16" cy="50.54" r="50.54"></circle><g class="cls-3"><circle class="cls-16" cx="75.16" cy="50.54" r="50.54"></circle></g><ellipse class="cls-5" cx="105.35" cy="63.45" rx="22.22" ry="12.83" transform="translate(6.28 136.32) rotate(-67.4)"></ellipse><ellipse class="cls-17" cx="105.35" cy="63.45" rx="22.22" ry="12.83" transform="translate(6.28 136.32) rotate(-67.4)"></ellipse><path class="cls-7" d="M97.51,65.87c.46,3.61,3.19,4.74,6.08,2.53A12.59,12.59,0,0,0,108,57.86c-.47-3.62-3.19-4.75-6.09-2.54A12.63,12.63,0,0,0,97.51,65.87Z"></path><path class="cls-7" d="M103.86,80c8-6.09,13.37-19.08,12.08-29-.53-4-2.09-7-4.29-8.59,4.16.39,7.32,3.92,8.11,10,1.29,9.94-4.12,22.93-12.08,29-4.71,3.61-9.27,4-12.46,1.62C97.81,83.31,100.8,82.33,103.86,80Z"></path><path class="cls-7" d="M107,81.12c8-6.09,13.37-19.08,12.08-29-.6-4.6-2.53-7.73-5.22-9.17,3,1.25,5.25,4.52,5.9,9.5,1.29,9.94-4.12,22.93-12.08,29-4.27,3.27-8.41,3.88-11.53,2.21C99.18,84.89,103,84.15,107,81.12Z"></path><circle class="cls-18" cx="22.67" cy="138.34" r="19.19" transform="translate(-8.56 1.68) rotate(-3.57)"></circle><g class="cls-3"><circle class="cls-19" cx="22.67" cy="138.34" r="19.19" transform="translate(-8.56 1.68) rotate(-3.57)"></circle></g><ellipse class="cls-5" cx="12.71" cy="143.61" rx="6.93" ry="12" transform="translate(-70.11 25.6) rotate(-30)"></ellipse><ellipse class="cls-20" cx="12.71" cy="143.61" rx="6.93" ry="12" transform="translate(-70.11 25.6) rotate(-30)"></ellipse><path class="cls-7" d="M8.73,132.67a7.24,7.24,0,0,0-1.14,4.22c0,5.41,3.8,12,8.49,14.69a7.46,7.46,0,0,0,4,1.15c-1.46,2.09-4.2,2.5-7.35.68C8,150.7,4.22,144.13,4.22,138.72,4.22,135,6.05,132.77,8.73,132.67Z"></path><polygon class="cls-5" points="32.51 69.02 50.82 79.59 50.82 58.45 32.51 47.88 32.51 69.02"></polygon><polygon class="cls-21" points="35.23 49.45 35.23 67.55 50.82 76.55 50.82 79.59 32.51 69.02 32.51 47.88 35.23 49.45"></polygon><polygon class="cls-7" points="47.32 64.23 48.96 65.17 48.96 63.28 47.32 62.34 47.32 64.23"></polygon><polygon class="cls-7" points="43.84 59.79 45.48 60.74 45.48 58.84 43.84 57.9 43.84 59.79"></polygon><polygon class="cls-7" points="40.36 60.21 42 61.16 42 59.26 40.36 58.32 40.36 60.21"></polygon><polygon class="cls-7" points="40.36 65.17 42 66.12 42 64.23 40.36 63.28 40.36 65.17"></polygon><polygon class="cls-7" points="42.46 68.99 44.1 69.94 44.1 68.05 42.46 67.1 42.46 68.99"></polygon><polygon class="cls-7" points="36.77 63.1 38.41 64.05 38.41 62.16 36.77 61.21 36.77 63.1"></polygon><polygon class="cls-22" points="17.76 63.45 15.75 59.98 17.76 58.82 36.06 69.39 36.06 90.53 34.06 91.68 32.06 88.22 17.76 79.96 17.76 63.45"></polygon><polygon class="cls-23" points="15.75 81.11 34.06 91.68 34.06 70.55 15.75 59.98 15.75 81.11"></polygon><polygon class="cls-24" points="15.75 81.11 34.06 91.68 34.06 70.55 15.75 59.98 15.75 81.11"></polygon><path class="cls-25" d="M9.49,192.23c2,6.73,12.93,19.83,19.67,17.8s6.76-18.41,4.73-25.15a12.74,12.74,0,1,0-24.4,7.35Z"></path><g class="cls-3"><path class="cls-26" d="M9.49,192.23c2,6.73,12.93,19.83,19.67,17.8s6.76-18.41,4.73-25.15a12.74,12.74,0,1,0-24.4,7.35Z"></path></g><path class="cls-5" d="M22.46,176.43a12.33,12.33,0,0,0-10.11,4.69c-2,2.91-.83,5.52,2.71,5.84a12.29,12.29,0,0,0,10.11-4.69C27.22,179.36,26,176.75,22.46,176.43Z"></path><path class="cls-27" d="M22.46,176.43a12.33,12.33,0,0,0-10.11,4.69c-2,2.91-.83,5.52,2.71,5.84a12.29,12.29,0,0,0,10.11-4.69C27.22,179.36,26,176.75,22.46,176.43Z"></path><path class="cls-7" d="M26.16,179.73a4.85,4.85,0,0,0-2.7-1,12.34,12.34,0,0,0-10.11,4.7,4.87,4.87,0,0,0-1,2.53c-1.29-1.08-1.39-2.89,0-4.85a12.33,12.33,0,0,1,10.11-4.69C24.91,176.65,26.25,178,26.16,179.73Z"></path><path class="cls-8" d="M12.46,168.34a1,1,0,1,1,1.42,0A1,1,0,0,1,12.46,168.34Z"></path><path class="cls-7" d="M.8,166.69a2.54,2.54,0,1,1,3.58-.11A2.53,2.53,0,0,1,.8,166.69Z"></path><path class="cls-8" d="M7.15,180.93a1.41,1.41,0,0,1-.07-2,1.42,1.42,0,1,1,2.07,1.94A1.41,1.41,0,0,1,7.15,180.93Z"></path><path class="cls-7" d="M3.89,176.15a1,1,0,1,1,1.33-1.41,1,1,0,1,1-1.33,1.41Z"></path><path class="cls-7" d="M3.13,178.46a.66.66,0,0,1,0-.94.66.66,0,0,1,.94,0,.67.67,0,0,1,0,.94A.66.66,0,0,1,3.13,178.46Z"></path><path class="cls-8" d="M10.4,159.4a1.41,1.41,0,0,1,1.93-2.06,1.41,1.41,0,0,1-1.93,2.06Z"></path><path class="cls-7" d="M13.11,162.72a2.1,2.1,0,1,1,3-.1A2.1,2.1,0,0,1,13.11,162.72Z"></path><g class="cls-28"><g class="cls-3"><path class="cls-7" d="M114.82,115.57c20.74-12,37.62-41.2,37.62-65.15,0-18.29-10-28.94-24.93-26.51a31.21,31.21,0,0,0-4.67,1.16A3.33,3.33,0,0,0,121,27.53c-.18,1.08.35,1.73,1.2,1.46a28.25,28.25,0,0,1,4.29-1.06c13.66-2.23,22.84,7.53,22.84,24.3,0,22-15.47,48.75-34.48,59.72s-34.48,2-34.48-19.9c0-1-.7-1.41-1.57-.91a3.49,3.49,0,0,0-1.57,2.72C77.2,117.81,94.08,127.55,114.82,115.57Z"></path></g><g class="cls-29"><path class="cls-7" d="M114.82,123.15c24.4-14.09,44.25-48.47,44.25-76.65,0-10.58-2.77-19.13-8-24.72-.5-.53-1.48-.17-2.18.82s-.88,2.21-.38,2.74c4.88,5.19,7.46,13.14,7.46,23,0,26.18-18.45,58.13-41.12,71.22-11.41,6.59-22.4,7.39-30.16,2.21-.59-.4-1.58.13-2.21,1.18s-.68,2.21-.09,2.61C90.71,131.1,102.54,130.24,114.82,123.15Z"></path></g><g class="cls-3"><path class="cls-7" d="M94.52,51.27a3,3,0,0,0,.88-.83,80,80,0,0,1,6-7.26,68.6,68.6,0,0,1,5.85-5.54,3.29,3.29,0,0,0,1.19-2.85c-.19-.86-1-1-1.87-.29a72.06,72.06,0,0,0-6.39,6,84.1,84.1,0,0,0-6.56,7.92c-.72,1-.9,2.21-.41,2.75A1,1,0,0,0,94.52,51.27Z"></path></g><path class="cls-7" d="M85.42,62.74c0,1.12.79,1.58,1.77,1a3.9,3.9,0,0,0,1.76-3c0-1.12-.79-1.58-1.76-1A3.89,3.89,0,0,0,85.42,62.74Z"></path><path class="cls-7" d="M81.75,71c0,1.13.79,1.58,1.76,1A3.88,3.88,0,0,0,85.28,69c0-1.13-.79-1.58-1.77-1A3.9,3.9,0,0,0,81.75,71Z"></path><polygon class="cls-7" points="130.65 46.76 137.74 42.67 137.74 40.88 130.65 44.98 130.65 46.76"></polygon><polygon class="cls-7" points="124.59 50.26 128.14 48.21 128.14 46.42 124.59 48.47 124.59 50.26"></polygon><polygon class="cls-7" points="128.55 52.16 131.57 50.42 131.57 48.63 128.55 50.38 128.55 52.16"></polygon><polygon class="cls-7" points="123.49 55.09 127.03 53.04 127.03 51.25 123.49 53.3 123.49 55.09"></polygon><polygon class="cls-7" points="117.63 62.66 131.57 54.61 131.57 52.82 117.63 60.87 117.63 62.66"></polygon><polygon class="cls-7" points="128.55 60.54 131.57 58.8 131.57 57.01 128.55 58.76 128.55 60.54"></polygon><polygon class="cls-7" points="123.49 63.47 127.03 61.42 127.03 59.63 123.49 61.68 123.49 63.47"></polygon><polygon class="cls-7" points="123.91 67.41 131.57 62.99 131.57 61.2 123.91 65.63 123.91 67.41"></polygon><polygon class="cls-7" points="118.78 70.38 122.33 68.33 122.33 66.54 118.78 68.59 118.78 70.38"></polygon><polygon class="cls-7" points="113.62 73.36 117.17 71.31 117.17 69.52 113.62 71.57 113.62 73.36"></polygon><polygon class="cls-7" points="105.29 78.16 112.01 74.28 112.01 72.5 105.29 76.38 105.29 78.16"></polygon><polygon class="cls-7" points="109.32 84.22 112.87 82.17 112.87 80.38 109.32 82.43 109.32 84.22"></polygon><polygon class="cls-7" points="100.99 89.03 107.71 85.15 107.71 83.36 100.99 87.24 100.99 89.03"></polygon><polygon class="cls-7" points="128.03 73.42 131.57 71.37 131.57 69.58 128.03 71.63 128.03 73.42"></polygon><polygon class="cls-7" points="122.87 76.39 126.42 74.35 126.42 72.56 122.87 74.61 122.87 76.39"></polygon><polygon class="cls-7" points="114.54 81.2 121.26 77.33 121.26 75.54 114.54 79.42 114.54 81.2"></polygon><polygon class="cls-7" points="104.28 82.94 107.83 80.89 107.83 79.1 104.28 81.15 104.28 82.94"></polygon><polygon class="cls-7" points="99.12 85.92 102.67 83.87 102.67 82.08 99.12 84.13 99.12 85.92"></polygon><polygon class="cls-7" points="90.8 90.72 97.51 86.84 97.51 85.06 90.8 88.94 90.8 90.72"></polygon><polygon class="cls-7" points="128.03 81.8 131.57 79.75 131.57 77.96 128.03 80.01 128.03 81.8"></polygon><polygon class="cls-7" points="119.7 86.6 126.42 82.73 126.42 80.94 119.7 84.82 119.7 86.6"></polygon><polygon class="cls-7" points="107.02 68.78 110.57 66.73 110.57 64.95 107.02 67 107.02 68.78"></polygon><polygon class="cls-7" points="112.39 65.69 115.94 63.64 115.94 61.85 112.39 63.9 112.39 65.69"></polygon><polygon class="cls-7" points="98.69 73.59 105.41 69.71 105.41 67.93 98.69 71.8 98.69 73.59"></polygon><polygon class="cls-7" points="128.37 69.03 131.57 67.18 131.57 65.39 128.37 67.24 128.37 69.03"></polygon><polygon class="cls-7" points="118.88 74.51 126.66 70.02 126.66 68.23 118.88 72.72 118.88 74.51"></polygon><polygon class="cls-7" points="109.38 79.99 117.17 75.5 117.17 73.71 109.38 78.2 109.38 79.99"></polygon><polygon class="cls-7" points="93.76 76.44 96.97 74.59 96.97 72.8 93.76 74.65 93.76 76.44"></polygon><polygon class="cls-7" points="84.27 81.92 92.05 77.43 92.05 75.64 84.27 80.13 84.27 81.92"></polygon><polygon class="cls-7" points="74.77 87.4 82.56 82.91 82.56 81.12 74.77 85.61 74.77 87.4"></polygon><polygon class="cls-7" points="123.72 80.09 131.51 75.6 131.51 73.81 123.72 78.3 123.72 80.09"></polygon><polygon class="cls-7" points="119.62 82.46 122.01 81.08 122.01 79.29 119.62 80.67 119.62 82.46"></polygon><polygon class="cls-7" points="115.51 84.83 117.9 83.45 117.9 81.67 115.51 83.05 115.51 84.83"></polygon><polygon class="cls-7" points="107.91 89.22 113.79 85.83 113.79 84.04 107.91 87.44 107.91 89.22"></polygon><polygon class="cls-7" points="106.31 90.14 112.19 86.75 112.19 84.96 106.31 88.36 106.31 90.14"></polygon><polygon class="cls-7" points="101.32 80.45 103.71 79.07 103.71 77.29 101.32 78.67 101.32 80.45"></polygon><polygon class="cls-7" points="93.72 84.84 99.6 81.45 99.6 79.66 93.72 83.06 93.72 84.84"></polygon><polygon class="cls-7" points="92.13 85.76 98 82.37 98 80.58 92.13 83.98 92.13 85.76"></polygon><polygon class="cls-7" points="135.28 81.8 137.68 80.42 137.68 78.63 135.28 80.01 135.28 81.8"></polygon><polygon class="cls-7" points="127.68 86.19 133.56 82.79 133.56 81 127.68 84.4 127.68 86.19"></polygon><polygon class="cls-7" points="119.92 90.67 125.8 87.27 125.8 85.49 119.92 88.88 119.92 90.67"></polygon></g></g></g></g></svg> 