2<?xml version="1.0" encoding="UTF-8"?> <svg xmlns="http://www.w3.org/2000/svg" xmlns:xlink="http://www.w3.org/1999/xlink" viewBox="0 0 324.84 363.49"><defs><style>.cls-1{fill:none;}.cls-2,.cls-33,.cls-34{opacity:0.5;}.cls-3{fill:url(#Безымянный_градиент_18);}.cls-4{fill:url(#Безымянный_градиент_25);}.cls-5{fill:#fff;}.cls-6{fill:url(#Безымянный_градиент_18-2);}.cls-7{fill:url(#Безымянный_градиент_25-2);}.cls-8{fill:url(#Безымянный_градиент_18-3);}.cls-9{fill:url(#Безымянный_градиент_25-3);}.cls-10{fill:url(#Безымянный_градиент_18-4);}.cls-11{fill:url(#Безымянный_градиент_25-4);}.cls-12{fill:url(#Безымянный_градиент_17);}.cls-13{fill:url(#Безымянный_градиент_2);}.cls-14{fill:url(#Безымянный_градиент_17-2);}.cls-15{fill:url(#Безымянный_градиент_2-2);}.cls-16{fill:url(#Безымянный_градиент_17-3);}.cls-17{fill:url(#Безымянный_градиент_412);}.cls-18{fill:url(#Безымянный_градиент_419);}.cls-19{fill:url(#Безымянный_градиент_25-5);}.cls-20{fill:url(#Безымянный_градиент_33);}.cls-21{fill:url(#Безымянный_градиент_33-2);}.cls-22{fill:#7bdaff;}.cls-23{fill:url(#Безымянный_градиент_251);}.cls-24{clip-path:url(#clip-path);}.cls-25{fill:url(#Безымянный_градиент_14);}.cls-26,.cls-33{fill:#0063ad;}.cls-27{fill:url(#Безымянный_градиент_2-3);}.cls-28{fill:#3a9bd5;}.cls-29{fill:url(#Безымянный_градиент_2-4);}.cls-30{fill:#2573ba;}.cls-31{fill:url(#Безымянный_градиент_4);}.cls-32{fill:url(#Безымянный_градиент_11);}.cls-34{fill:#1a4272;}.cls-35{fill:url(#Безымянный_градиент_18-5);}.cls-36{fill:url(#Безымянный_градиент_25-6);}.cls-37{fill:url(#Безымянный_градиент_83);}.cls-38{fill:url(#Безымянный_градиент_18-6);}.cls-39{fill:url(#Безымянный_градиент_25-7);}.cls-40{fill:#da1e00;opacity:0.7;}.cls-41{fill:url(#Безымянный_градиент_18-7);}.cls-42{fill:url(#Безымянный_градиент_89);}</style><linearGradient id="Безымянный_градиент_18" x1="154.08" y1="106.87" x2="242.26" y2="106.87" gradientUnits="userSpaceOnUse"><stop offset="0.4" stop-color="#fd5a05"></stop><stop offset="0.42" stop-color="#fa5505"></stop><stop offset="0.55" stop-color="#ec3d03"></stop><stop offset="0.68" stop-color="#e22c01"></stop><stop offset="0.83" stop-color="#dc2100"></stop><stop offset="1" stop-color="#da1e00"></stop></linearGradient><linearGradient id="Безымянный_градиент_25" x1="159.28" y1="21.71" x2="253.42" y2="163.67" gradientUnits="userSpaceOnUse"><stop offset="0.4" stop-color="#fc8b04"></stop><stop offset="0.51" stop-color="#fc7904"></stop><stop offset="0.66" stop-color="#fd6805"></stop><stop offset="0.81" stop-color="#fd5d05"></stop><stop offset="1" stop-color="#fd5a05"></stop></linearGradient><linearGradient id="Безымянный_градиент_18-2" x1="214.42" y1="115.7" x2="302.6" y2="115.7" xlink:href="#Безымянный_градиент_18"></linearGradient><linearGradient id="Безымянный_градиент_25-2" x1="219.62" y1="4.22" x2="313.75" y2="146.18" xlink:href="#Безымянный_градиент_25"></linearGradient><linearGradient id="Безымянный_градиент_18-3" x1="-191.99" y1="448.56" x2="-123.82" y2="448.56" gradientTransform="translate(-75.81 23.53) rotate(-69.65)" xlink:href="#Безымянный_градиент_18"></linearGradient><linearGradient id="Безымянный_градиент_25-3" x1="-187.97" y1="372.48" x2="-115.2" y2="482.23" gradientTransform="translate(-75.81 23.53) rotate(-69.65)" xlink:href="#Безымянный_градиент_25"></linearGradient><linearGradient id="Безымянный_градиент_18-4" x1="789.48" y1="265.55" x2="840.33" y2="265.55" gradientTransform="translate(-821.55 266.79) rotate(-22.97)" xlink:href="#Безымянный_градиент_18"></linearGradient><linearGradient id="Безымянный_градиент_25-4" x1="792.47" y1="208.8" x2="846.76" y2="290.67" gradientTransform="translate(-821.55 266.79) rotate(-22.97)" xlink:href="#Безымянный_градиент_25"></linearGradient><linearGradient id="Безымянный_градиент_17" x1="64.04" y1="117.12" x2="94.25" y2="117.12" gradientTransform="translate(67.13 -27.2) rotate(38.35)" gradientUnits="userSpaceOnUse"><stop offset="0" stop-color="#3a9bd5"></stop><stop offset="0.12" stop-color="#3490ce"></stop><stop offset="0.37" stop-color="#2c80c3"></stop><stop offset="0.64" stop-color="#2776bc"></stop><stop offset="1" stop-color="#2573ba"></stop></linearGradient><linearGradient id="Безымянный_градиент_2" x1="65.82" y1="83.42" x2="98.07" y2="132.04" gradientTransform="translate(67.13 -27.2) rotate(38.35)" gradientUnits="userSpaceOnUse"><stop offset="0" stop-color="#59bdef"></stop><stop offset="1" stop-color="#7bdaff"></stop></linearGradient><linearGradient id="Безымянный_градиент_17-2" x1="344.96" y1="72.75" x2="375.17" y2="72.75" xlink:href="#Безымянный_градиент_17"></linearGradient><linearGradient id="Безымянный_градиент_2-2" x1="346.74" y1="39.05" x2="378.99" y2="87.67" xlink:href="#Безымянный_градиент_2"></linearGradient><linearGradient id="Безымянный_градиент_17-3" x1="66.44" y1="163.63" x2="279.49" y2="163.63" gradientTransform="matrix(1, 0, 0, 1, 0, 0)" xlink:href="#Безымянный_градиент_17"></linearGradient><radialGradient id="Безымянный_градиент_412" cx="195.32" cy="649.53" r="321.44" gradientTransform="matrix(0.87, 0.5, 0, 1, 122.18, -581.68)" gradientUnits="userSpaceOnUse"><stop offset="0" stop-color="#7bdaff"></stop><stop offset="1" stop-color="#59bdef"></stop></radialGradient><linearGradient id="Безымянный_градиент_419" x1="68.66" y1="45.79" x2="274.38" y2="101.55" gradientUnits="userSpaceOnUse"><stop offset="0" stop-color="#fc7d14"></stop><stop offset="0.37" stop-color="#f05d0d"></stop><stop offset="1" stop-color="#da1e00"></stop></linearGradient><linearGradient id="Безымянный_градиент_25-5" x1="415.1" y1="657.35" x2="-24.39" y2="844.82" gradientTransform="matrix(0.87, 0.5, 0, 1.15, 122.18, -889.15)" xlink:href="#Безымянный_градиент_25"></linearGradient><linearGradient id="Безымянный_градиент_33" x1="235.66" y1="263.34" x2="232.48" y2="243.95" gradientUnits="userSpaceOnUse"><stop offset="0" stop-color="#2573ba"></stop><stop offset="1" stop-color="#1a4272"></stop></linearGradient><linearGradient id="Безымянный_градиент_33-2" x1="3099.77" y1="192.71" x2="3022.06" y2="167.33" gradientTransform="matrix(-1, 0, 0, 1, 3304.91, 0)" xlink:href="#Безымянный_градиент_33"></linearGradient><linearGradient id="Безымянный_градиент_251" x1="197.31" y1="185.56" x2="228.21" y2="185.56" gradientUnits="userSpaceOnUse"><stop offset="0" stop-color="#2573ba"></stop><stop offset="0.01" stop-color="#2674bb"></stop><stop offset="0.13" stop-color="#2f86c7"></stop><stop offset="0.29" stop-color="#3592cf"></stop><stop offset="0.49" stop-color="#3999d4"></stop><stop offset="1" stop-color="#3a9bd5"></stop></linearGradient><clipPath id="clip-path"><polygon class="cls-1" points="252.32 172.28 252.32 193.65 252.32 264.28 213.01 293.63 155.01 283.28 130.98 242.99 252.32 172.28"></polygon></clipPath><linearGradient id="Безымянный_градиент_14" x1="3041.4" y1="243.65" x2="3134.61" y2="243.65" gradientTransform="matrix(-1, 0, 0, 1, 3304.91, 0)" gradientUnits="userSpaceOnUse"><stop offset="0" stop-color="#2573ba"></stop><stop offset="1" stop-color="#0063ad"></stop></linearGradient><linearGradient id="Безымянный_градиент_2-3" x1="3040.23" y1="212.5" x2="3157.9" y2="253.73" gradientTransform="matrix(-1, 0, 0, 1, 3304.91, 0)" xlink:href="#Безымянный_градиент_2"></linearGradient><linearGradient id="Безымянный_градиент_2-4" x1="3917.06" y1="-2234.65" x2="3933.07" y2="-2234.65" gradientTransform="matrix(-0.87, 0.5, 0, 1.15, 3589.42, 884.75)" xlink:href="#Безымянный_градиент_2"></linearGradient><linearGradient id="Безымянный_градиент_4" x1="3110.34" y1="266.95" x2="3118.38" y2="266.95" gradientTransform="matrix(-1, 0, 0, 1, 3304.91, 0)" xlink:href="#Безымянный_градиент_412"></linearGradient><linearGradient id="Безымянный_градиент_11" x1="3772.71" y1="-2088.48" x2="3900.58" y2="-2088.48" gradientTransform="matrix(-0.87, 0.5, 0, 1.15, 3560.15, 734.24)" gradientUnits="userSpaceOnUse"><stop offset="0" stop-color="#3a9bd5"></stop><stop offset="1" stop-color="#2573ba"></stop></linearGradient><linearGradient id="Безымянный_градиент_18-5" x1="280.14" y1="219.41" x2="342.36" y2="219.41" gradientTransform="matrix(0.99, -0.12, 0.12, 0.99, -136.36, 32.73)" xlink:href="#Безымянный_градиент_18"></linearGradient><linearGradient id="Безымянный_градиент_25-6" x1="283.8" y1="149.97" x2="350.24" y2="250.15" gradientTransform="matrix(0.99, -0.12, 0.12, 0.99, -136.36, 32.73)" xlink:href="#Безымянный_градиент_25"></linearGradient><linearGradient id="Безымянный_градиент_83" x1="177.98" y1="188.88" x2="212.34" y2="184.66" gradientUnits="userSpaceOnUse"><stop offset="0" stop-color="#da1e00"></stop><stop offset="0.23" stop-color="#db2000"></stop><stop offset="0.33" stop-color="#df2701"></stop><stop offset="0.41" stop-color="#e73402"></stop><stop offset="0.47" stop-color="#f14503"></stop><stop offset="0.52" stop-color="#fd5a05"></stop></linearGradient><linearGradient id="Безымянный_градиент_18-6" x1="-188.3" y1="696.4" x2="-126.05" y2="696.4" gradientTransform="matrix(0.9, 0.43, -0.43, 0.9, 627.33, -393.44)" xlink:href="#Безымянный_градиент_18"></linearGradient><linearGradient id="Безымянный_градиент_25-7" x1="-184.61" y1="642.25" x2="-118.18" y2="742.43" gradientTransform="matrix(0.9, 0.43, -0.43, 0.9, 627.33, -393.44)" xlink:href="#Безымянный_градиент_25"></linearGradient><linearGradient id="Безымянный_градиент_18-7" x1="-175.39" y1="685.12" x2="-138.98" y2="685.12" gradientTransform="matrix(0.9, 0.43, -0.43, 0.9, 627.33, -393.44)" xlink:href="#Безымянный_градиент_18"></linearGradient><linearGradient id="Безымянный_градиент_89" x1="-173.23" y1="653.44" x2="-134.38" y2="712.03" gradientTransform="matrix(0.9, 0.43, -0.43, 0.9, 627.33, -393.44)" gradientUnits="userSpaceOnUse"><stop offset="0.4" stop-color="#fc7d14"></stop><stop offset="0.43" stop-color="#fc7912"></stop><stop offset="0.6" stop-color="#fd680b"></stop><stop offset="0.78" stop-color="#fd5d06"></stop><stop offset="1" stop-color="#fd5a05"></stop></linearGradient></defs><title>Ресурс 1</title><g id="Слой_2" data-name="Слой 2"><g id="Слой_1-2" data-name="Слой 1"><g class="cls-2"><path class="cls-3" d="M242.26,80.37H154.08v27.56h0a2.76,2.76,0,0,0,1.63,2.54l38,21.93c2.46,1.42,6.75,1.24,9.59-.39l36.61-21.14a4.09,4.09,0,0,0,2.33-2.94h0Z"></path><path class="cls-4" d="M193.73,104.87l-38-21.93c-2.45-1.42-2.15-3.9.69-5.54L193,56.27c2.84-1.64,7.13-1.82,9.59-.4l38,21.93c2.46,1.42,2.15,3.9-.69,5.54l-36.61,21.13C200.48,106.11,196.19,106.29,193.73,104.87Z"></path><path class="cls-5" d="M239.93,81.71l-36.61,21.13c-2.84,1.64-7.13,1.82-9.59.4l-38-21.93a3.29,3.29,0,0,1-1.48-1.62c-.44,1.19,0,2.41,1.48,3.25l38,21.93c2.46,1.42,6.75,1.24,9.59-.4l36.61-21.13c1.94-1.12,2.66-2.63,2.17-3.92A4.73,4.73,0,0,1,239.93,81.71Z"></path><path class="cls-6" d="M302.6,62.88H214.42v80.21h0a2.77,2.77,0,0,0,1.64,2.54l38,21.93c2.45,1.42,6.75,1.25,9.59-.39L300.26,146a4,4,0,0,0,2.33-2.94h0Z"></path><path class="cls-7" d="M254.07,87.38l-38-21.93c-2.46-1.42-2.15-3.9.69-5.54l36.61-21.13c2.83-1.64,7.13-1.82,9.59-.4l38,21.93c2.46,1.42,2.15,3.9-.69,5.54L263.66,87C260.82,88.62,256.52,88.8,254.07,87.38Z"></path><path class="cls-5" d="M300.26,64.21l-36.6,21.14c-2.84,1.64-7.14,1.82-9.59.4l-38-21.93a3.24,3.24,0,0,1-1.48-1.62c-.44,1.19,0,2.41,1.48,3.25l38,21.93c2.45,1.42,6.75,1.24,9.59-.4l36.6-21.13c1.94-1.12,2.67-2.63,2.17-3.92A4.63,4.63,0,0,1,300.26,64.21Z"></path></g><g class="cls-2"><path class="cls-8" d="M272.9,284.91l-23.7,63.91,39.18,14.53h0a2.13,2.13,0,0,0,2.28-.51l26.11-21.63c1.69-1.4,2.71-4.56,2.29-7.06l-5.48-32.22a3.17,3.17,0,0,0-1.51-2.48h0Z"></path><path class="cls-9" d="M277.62,326.67l-26.11,21.64c-1.69,1.4-3.41.51-3.83-2l-5.48-32.21a8.22,8.22,0,0,1,2.29-7.06l26.11-21.64c1.69-1.4,3.4-.51,3.83,2l5.47,32.21A8.25,8.25,0,0,1,277.62,326.67Z"></path><path class="cls-5" d="M273.24,287l5.48,32.21a8.22,8.22,0,0,1-2.29,7.06l-26.11,21.64a2.42,2.42,0,0,1-1.56.64,2,2,0,0,0,2.75-.2l26.11-21.64a8.25,8.25,0,0,0,2.28-7.06l-5.47-32.21c-.29-1.71-1.19-2.64-2.27-2.63A3.55,3.55,0,0,1,273.24,287Z"></path></g><path class="cls-10" d="M46.89,162.31.07,182.15l12.16,28.7h0a1.57,1.57,0,0,0,1.44,1l25.1,3.1a6.15,6.15,0,0,0,5-2.37L58.48,193.1a2.32,2.32,0,0,0,.57-2.08h0Z"></path><path class="cls-11" d="M26.64,186.24l-25.11-3.1c-1.62-.2-2-1.58-.88-3.09l14.68-19.46a6.15,6.15,0,0,1,5-2.37l25.1,3.1c1.63.2,2,1.59.88,3.09L31.64,183.87A6.15,6.15,0,0,1,26.64,186.24Z"></path><path class="cls-5" d="M46,163.55,31.27,183a6.15,6.15,0,0,1-5,2.37l-25.11-3.1A1.91,1.91,0,0,1,0,181.75a1.5,1.5,0,0,0,1.52,1.39l25.11,3.1a6.15,6.15,0,0,0,5-2.37l14.68-19.46c.78-1,.83-2,.27-2.57A2.71,2.71,0,0,1,46,163.55Z"></path><path class="cls-12" d="M76.81,112.46,53.12,93.71,41.64,108.23h0a1,1,0,0,0-.1,1l5.54,14a3.63,3.63,0,0,0,2.66,1.93l14.33,2.11a1.41,1.41,0,0,0,1.25-.3h0Z"></path><path class="cls-13" d="M58.56,108.72,53,94.76c-.36-.91.25-1.51,1.37-1.34l14.32,2.1a3.65,3.65,0,0,1,2.66,1.93l5.54,14c.36.9-.25,1.5-1.36,1.34l-14.32-2.11A3.65,3.65,0,0,1,58.56,108.72Z"></path><path class="cls-5" d="M75.9,112.32l-14.33-2.11a3.63,3.63,0,0,1-2.66-1.93l-5.54-14a1.1,1.1,0,0,1,0-.75.9.9,0,0,0-.3,1.19l5.54,14a3.65,3.65,0,0,0,2.67,1.93l14.32,2.11c.76.11,1.27-.14,1.42-.6A1.62,1.62,0,0,1,75.9,112.32Z"></path><path class="cls-14" d="M324.64,252,301,233.23l-11.49,14.52h0a1,1,0,0,0-.1,1l5.54,14a3.65,3.65,0,0,0,2.66,1.93l14.32,2.1a1.4,1.4,0,0,0,1.26-.29h0Z"></path><path class="cls-15" d="M306.39,248.24l-5.54-14c-.36-.9.25-1.5,1.36-1.34L316.54,235A3.63,3.63,0,0,1,319.2,237l5.54,14c.36.91-.25,1.51-1.36,1.34l-14.33-2.1A3.65,3.65,0,0,1,306.39,248.24Z"></path><path class="cls-5" d="M323.73,251.83l-14.33-2.1a3.65,3.65,0,0,1-2.66-1.93l-5.54-14a1.07,1.07,0,0,1-.05-.74.88.88,0,0,0-.3,1.18l5.54,14a3.65,3.65,0,0,0,2.66,1.93l14.33,2.1c.76.11,1.27-.14,1.41-.59A1.52,1.52,0,0,1,323.73,251.83Z"></path><path class="cls-16" d="M66.44,24.56V174.63c0,3.65,2.22,7.89,5,9.47L274.54,301.38a4.2,4.2,0,0,0,1.41.54v.78l1.74-1h0l.18-.1h0c1-.63,1.63-2,1.63-3.94V147.57Z"></path><path class="cls-5" d="M80.36,19.19c0,1.67-1.17,2.34-2.61,1.51a5.78,5.78,0,0,1-2.62-4.53c0-1.67,1.17-2.35,2.62-1.51A5.78,5.78,0,0,1,80.36,19.19Z"></path><ellipse class="cls-5" cx="86.12" cy="22.51" rx="2.14" ry="3.7" transform="translate(0.28 46.08) rotate(-30)"></ellipse><path class="cls-5" d="M97.11,28.86c0,1.67-1.17,2.34-2.62,1.51a5.81,5.81,0,0,1-2.61-4.53c0-1.67,1.17-2.35,2.61-1.51A5.76,5.76,0,0,1,97.11,28.86Z"></path><path class="cls-17" d="M272.81,302.38,69.66,185.09c-2.73-1.57-5-5.81-5-9.46V25.56l213.05,123V298.64C277.76,302.28,275.54,304,272.81,302.38Z"></path><path class="cls-18" d="M274.54,117.88,71.39.59a3.19,3.19,0,0,0-3.2-.28h0L66.35,1.37l.71.13a5.86,5.86,0,0,0-.62,2.84V24.56L277.1,146.19l.66,2.38,1.73-1V127.35C279.49,123.7,277.28,119.46,274.54,117.88Z"></path><path class="cls-19" d="M69.66,1.59,272.81,118.88c2.73,1.58,4.95,5.82,4.95,9.46v20.23l-213-123V5.34C64.71,1.69,66.93,0,69.66,1.59Z"></path><path class="cls-5" d="M78.63,20.19c0,1.67-1.17,2.34-2.62,1.51a5.81,5.81,0,0,1-2.61-4.54c0-1.66,1.17-2.34,2.61-1.51A5.8,5.8,0,0,1,78.63,20.19Z"></path><path class="cls-5" d="M87,25c0,1.67-1.18,2.35-2.62,1.51A5.76,5.76,0,0,1,81.77,22c0-1.67,1.17-2.35,2.62-1.51A5.79,5.79,0,0,1,87,25Z"></path><path class="cls-5" d="M95.38,29.86c0,1.67-1.17,2.34-2.62,1.51a5.81,5.81,0,0,1-2.61-4.54c0-1.66,1.17-2.34,2.61-1.51A5.8,5.8,0,0,1,95.38,29.86Z"></path><polygon class="cls-5" points="78.58 77.64 90.27 84.39 90.27 82.36 78.58 75.61 78.58 77.64"></polygon><polygon class="cls-5" points="92.14 85.47 98.51 89.15 98.51 87.12 92.14 83.44 92.14 85.47"></polygon><polygon class="cls-5" points="108.42 94.87 113.02 97.53 113.02 95.5 108.42 92.84 108.42 94.87"></polygon><polygon class="cls-5" points="105.06 92.92 106.63 93.83 106.63 91.81 105.06 90.9 105.06 92.92"></polygon><polygon class="cls-5" points="100.41 90.24 103.27 91.89 103.27 89.86 100.41 88.21 100.41 90.24"></polygon><polygon class="cls-5" points="89.39 93.16 94 95.82 94 93.79 89.39 91.13 89.39 93.16"></polygon><polygon class="cls-5" points="78.58 86.91 87.61 92.13 87.61 90.1 78.58 84.88 78.58 86.91"></polygon><polygon class="cls-5" points="95.43 119.8 104.46 125.02 104.46 122.99 95.43 117.77 95.43 119.8"></polygon><polygon class="cls-5" points="90.79 117.12 93.65 118.77 93.65 116.74 90.79 115.09 90.79 117.12"></polygon><polygon class="cls-5" points="95.38 110.52 104.4 115.73 104.4 113.7 95.38 108.49 95.38 110.52"></polygon><polygon class="cls-5" points="90.73 107.83 93.59 109.48 93.59 107.46 90.73 105.8 90.73 107.83"></polygon><polygon class="cls-5" points="95.53 159.88 78.52 150.05 78.52 152.08 95.53 161.91 95.53 159.88"></polygon><polygon class="cls-5" points="101.52 163.34 97.31 160.91 97.31 162.94 101.52 165.37 101.52 163.34"></polygon><polygon class="cls-5" points="129.04 165.31 112.04 155.48 112.04 157.51 129.04 167.34 129.04 165.31"></polygon><polygon class="cls-5" points="135.04 168.77 130.83 166.34 130.83 168.37 135.04 170.8 135.04 168.77"></polygon><polygon class="cls-5" points="83.13 148.07 78.52 145.41 78.52 147.44 83.13 150.1 83.13 148.07"></polygon><polygon class="cls-5" points="109.59 154.08 104.98 151.42 104.98 153.45 109.59 156.11 109.59 154.08"></polygon><polygon class="cls-5" points="93.94 154.32 84.91 149.11 84.91 151.14 93.94 156.35 93.94 154.32"></polygon><polygon class="cls-5" points="98.58 157.01 95.72 155.35 95.72 157.38 98.58 159.04 98.58 157.01"></polygon><polygon class="cls-5" points="109.48 163.29 100.45 158.08 100.45 160.11 109.48 165.32 109.48 163.29"></polygon><polygon class="cls-5" points="114.12 165.98 111.26 164.32 111.26 166.35 114.12 168.01 114.12 165.98"></polygon><polygon class="cls-5" points="109.59 158.72 104.98 156.06 104.98 158.09 109.59 160.75 109.59 158.72"></polygon><polygon class="cls-5" points="120.4 164.97 111.37 159.75 111.37 161.78 120.4 167 120.4 164.97"></polygon><polygon class="cls-5" points="125.04 167.66 122.19 166 122.19 168.03 125.04 169.69 125.04 167.66"></polygon><polygon class="cls-5" points="87.95 146.22 78.52 140.78 78.52 142.81 87.95 148.25 87.95 146.22"></polygon><polygon class="cls-5" points="96.55 151.19 89.73 147.25 89.73 149.28 96.55 153.22 96.55 151.19"></polygon><polygon class="cls-5" points="102.94 154.89 98.33 152.23 98.33 154.26 102.94 156.92 102.94 154.89"></polygon><polygon class="cls-5" points="146.83 175.57 137.4 170.12 137.4 172.15 146.83 177.6 146.83 175.57"></polygon><polygon class="cls-5" points="155.43 180.54 148.61 176.6 148.61 178.63 155.43 182.57 155.43 180.54"></polygon><polygon class="cls-5" points="161.82 184.23 157.21 181.57 157.21 183.6 161.82 186.26 161.82 184.23"></polygon><polygon class="cls-5" points="134.05 114.3 143.47 119.75 143.47 117.72 134.05 112.28 134.05 114.3"></polygon><polygon class="cls-5" points="125.45 109.33 132.26 113.27 132.26 111.24 125.45 107.3 125.45 109.33"></polygon><polygon class="cls-5" points="119.06 105.64 123.66 108.3 123.66 106.27 119.06 103.61 119.06 105.64"></polygon><polygon class="cls-5" points="130.13 107.39 139.56 112.84 139.56 110.81 130.13 105.36 130.13 107.39"></polygon><polygon class="cls-5" points="121.53 102.42 128.35 106.36 128.35 104.33 121.53 100.39 121.53 102.42"></polygon><polygon class="cls-5" points="115.14 98.72 119.75 101.39 119.75 99.36 115.14 96.69 115.14 98.72"></polygon><polygon class="cls-5" points="96.78 115.97 99.96 117.81 99.96 115.78 96.78 113.94 96.78 115.97"></polygon><polygon class="cls-5" points="90.79 112.5 95 114.94 95 112.91 90.79 110.48 90.79 112.5"></polygon><polygon class="cls-5" points="88.01 141.61 78.58 136.17 78.58 138.2 88.01 143.64 88.01 141.61"></polygon><polygon class="cls-5" points="96.61 146.59 89.79 142.65 89.79 144.68 96.61 148.62 96.61 146.59"></polygon><polygon class="cls-5" points="103 150.28 98.39 147.62 98.39 149.65 103 152.31 103 150.28"></polygon><polygon class="cls-5" points="81.77 133.37 78.58 131.53 78.58 133.56 81.77 135.4 81.77 133.37"></polygon><polygon class="cls-5" points="87.76 136.83 83.55 134.4 83.55 136.43 87.76 138.86 87.76 136.83"></polygon><polygon class="cls-5" points="96.32 141.78 89.54 137.87 89.54 139.9 96.32 143.81 96.32 141.78"></polygon><polygon class="cls-5" points="98.76 103.18 101.94 105.02 101.94 103 98.76 101.16 98.76 103.18"></polygon><polygon class="cls-5" points="92.77 99.72 96.97 102.15 96.97 100.12 92.77 97.69 92.77 99.72"></polygon><polygon class="cls-5" points="84.2 94.77 90.98 98.69 90.98 96.66 84.2 92.74 84.2 94.77"></polygon><polygon class="cls-5" points="104.33 110.71 111.11 114.63 111.11 112.6 104.33 108.68 104.33 110.71"></polygon><polygon class="cls-5" points="93.3 104.67 102.44 109.95 102.44 107.92 93.3 102.64 93.3 104.67"></polygon><polygon class="cls-5" points="88.66 101.98 91.52 103.64 91.52 101.61 88.66 99.95 88.66 101.98"></polygon><polygon class="cls-5" points="84.2 99.41 87.06 101.06 87.06 99.03 84.2 97.38 84.2 99.41"></polygon><polygon class="cls-5" points="88.79 125.61 97.82 130.82 97.82 128.79 88.79 123.58 88.79 125.61"></polygon><polygon class="cls-5" points="84.15 122.92 87 124.57 87 122.54 84.15 120.89 84.15 122.92"></polygon><polygon class="cls-5" points="90.19 131.06 93.38 132.9 93.38 130.87 90.19 129.03 90.19 131.06"></polygon><polygon class="cls-5" points="99.86 127.34 103.05 129.18 103.05 127.15 99.86 125.31 99.86 127.34"></polygon><polygon class="cls-5" points="104.4 129.96 112.04 134.37 112.04 132.34 104.4 127.93 104.4 129.96"></polygon><polygon class="cls-5" points="113.39 135.15 117.94 137.78 117.94 135.75 113.39 133.12 113.39 135.15"></polygon><polygon class="cls-5" points="84.2 127.59 88.41 130.02 88.41 128 84.2 125.56 84.2 127.59"></polygon><polygon class="cls-5" points="84.57 132.36 87.76 134.2 87.76 132.17 84.57 130.33 84.57 132.36"></polygon><polygon class="cls-5" points="78.58 128.89 82.79 131.32 82.79 129.29 78.58 126.86 78.58 128.89"></polygon><polygon class="cls-5" points="95.25 124.67 98.1 126.33 98.1 124.3 95.25 122.64 95.25 124.67"></polygon><polygon class="cls-5" points="90.79 122.1 93.65 123.75 93.65 121.72 90.79 120.07 90.79 122.1"></polygon><polygon class="cls-5" points="107.21 98.79 116.96 104.43 116.96 102.4 107.21 96.76 107.21 98.79"></polygon><polygon class="cls-5" points="96.29 92.48 105.42 97.76 105.42 95.73 96.29 90.45 96.29 92.48"></polygon><polygon class="cls-5" points="91.64 89.8 94.5 91.45 94.5 89.42 91.64 87.77 91.64 89.8"></polygon><polygon class="cls-5" points="87.19 87.22 90.05 88.87 90.05 86.84 87.19 85.19 87.19 87.22"></polygon><polygon class="cls-5" points="84.75 85.81 78.58 82.25 78.58 80.22 84.75 83.78 84.75 85.81"></polygon><polygon class="cls-20" points="252.32 242.94 252.32 274.3 213.85 252.31 252.32 242.94"></polygon><polygon class="cls-21" points="210.96 131.23 210.96 213 252.32 236.88 252.32 155.11 210.96 131.23"></polygon><polygon class="cls-22" points="210.96 131.23 210.96 213 252.32 236.88 252.32 242.94 205.68 216.02 205.68 128.18 210.96 131.23"></polygon><polygon class="cls-23" points="210.96 131.23 210.96 213 252.32 236.88 252.32 242.94 205.68 216.02 205.68 128.18 210.96 131.23"></polygon><g class="cls-24"><path class="cls-25" d="M187.61,278.63,253.43,241l10.08-32.32L197.63,238s-27,20.21-27.32,20.63,14.49,19,14.49,19Z"></path><polygon class="cls-26" points="256.29 239.08 218.34 217.17 218.93 216.83 256.88 238.74 256.29 239.08"></polygon><polygon class="cls-26" points="199.35 228.17 199.94 227.83 237.85 249.72 237.26 250.06 199.35 228.17"></polygon><polygon class="cls-26" points="218.82 260.7 218.23 261.04 180.37 239.18 180.95 238.84 218.82 260.7"></polygon><polygon class="cls-26" points="200.04 271.83 199.48 272.18 161.38 250.19 161.97 249.84 200.04 271.83"></polygon><path class="cls-27" d="M148.2,257.7h0l37,21.34-1.6-6.08.68-4.3.79-4.19,5.25-5.09,9.7-6.06,65.05-37.54-8.18-12.59-.28-3.49c4.21-2.44-.54-5.93-.54-11.51,0-3.09-1.07-5.48-2.94-6.55-1.6-.93,5.54-6.13,3.53-5l-103.81,60.2c-4.22,2.44-7.52,8.71-7.52,14.29C145.32,254.23,146.37,256.61,148.2,257.7Z"></path><polygon class="cls-28" points="250.19 224.36 212.24 202.45 212.83 202.11 250.78 224.02 250.19 224.36"></polygon><polygon class="cls-28" points="193.25 213.46 193.84 213.12 231.75 235 231.16 235.34 193.25 213.46"></polygon><polygon class="cls-28" points="231.22 191.43 231.8 191.09 269.68 212.96 269.09 213.3 231.22 191.43"></polygon><polygon class="cls-28" points="212.72 245.98 212.13 246.32 174.27 224.46 174.85 224.12 212.72 245.98"></polygon><polygon class="cls-28" points="193.94 257.11 193.38 257.46 155.28 235.47 155.87 235.13 193.94 257.11"></polygon><path class="cls-29" d="M183.38,270.94c0,4.42,3.1,6.21,6.93,4a15.33,15.33,0,0,0,6.94-12c0-4.42-3.11-6.22-6.94-4A15.31,15.31,0,0,0,183.38,270.94Z"></path><path class="cls-30" d="M186.06,269.39c0,2.72,1.9,3.82,4.25,2.46a9.42,9.42,0,0,0,4.26-7.37c0-2.72-1.91-3.82-4.26-2.46A9.41,9.41,0,0,0,186.06,269.39Z"></path><path class="cls-31" d="M188.81,270.83a9.42,9.42,0,0,0,4.26-7.38,3.84,3.84,0,0,0-.48-2c1.19.19,2,1.26,2,3a9.42,9.42,0,0,1-4.26,7.37c-1.64.95-3.07.69-3.78-.48A3.5,3.5,0,0,0,188.81,270.83Z"></path><path class="cls-32" d="M185.19,279c-1.87-1.08-2.94-3.47-2.94-6.56,0-5.58,3.31-11.85,7.53-14.29l94.66-54.87a5.48,5.48,0,0,1,5.62-.37c1.86,1.07,2.93,3.46,2.93,6.56,0,5.57-3.31,11.85-7.53,14.28L190.8,278.67h0a6.67,6.67,0,0,1-3.3,1A4.51,4.51,0,0,1,185.19,279Zm4.59-2.14L284.44,222C288,220,291,214.34,291,209.51c0-2.35-.7-4.09-1.91-4.8a3.64,3.64,0,0,0-3.58.37L190.8,260c-3.59,2.07-6.51,7.69-6.51,12.52,0,2.34.7,4.09,1.91,4.79a3.61,3.61,0,0,0,3.58-.37Z"></path></g><polygon class="cls-33" points="252.32 216.71 220.08 197.89 252.32 179.19 252.32 216.71"></polygon><path class="cls-34" d="M198,246.64l-25.67-14.82c-1.37-.79-1.2-2.17.38-3.08l24.91-14.38a5.92,5.92,0,0,1,5.33-.22L228.59,229c1.37.79,1.2,2.17-.38,3.08L203.3,246.42A5.94,5.94,0,0,1,198,246.64Z"></path><path class="cls-35" d="M225.85,183.2,164,190.4l4.41,37.89h0a2,2,0,0,0,1.35,1.66l28.42,12.27a7.53,7.53,0,0,0,6.69-1.06l23.94-17.81a2.9,2.9,0,0,0,1.39-2.25h0Z"></path><path class="cls-36" d="M193.83,204.34l-28.42-12.28c-1.84-.79-1.82-2.55,0-3.93l23.94-17.81a7.53,7.53,0,0,1,6.69-1.06l28.42,12.27c1.83.8,1.82,2.56,0,3.94l-23.93,17.8A7.54,7.54,0,0,1,193.83,204.34Z"></path><path class="cls-37" d="M194.32,196.61l-15.9-6.86c-1-.45-1-1.44,0-2.21l13.39-10a4.22,4.22,0,0,1,3.75-.6l15.9,6.87c1,.45,1,1.43,0,2.2l-13.39,10A4.21,4.21,0,0,1,194.32,196.61Z"></path><path class="cls-5" d="M224.32,184.32l-23.93,17.81a7.54,7.54,0,0,1-6.69,1.06l-28.42-12.27a2.29,2.29,0,0,1-1.17-1,1.83,1.83,0,0,0,1.3,2.15l28.42,12.28a7.54,7.54,0,0,0,6.69-1.07l23.93-17.8c1.27-.94,1.66-2.06,1.2-2.93A3.22,3.22,0,0,1,224.32,184.32Z"></path><path class="cls-38" d="M219.94,169.83l-56.19-26.72-3.28,6.82h0a2,2,0,0,0,.27,2.12l17.57,25.49a7.57,7.57,0,0,0,6.23,2.65l29.74-2.38a2.89,2.89,0,0,0,2.37-1.17h0Z"></path><path class="cls-39" d="M181.59,170.74,164,145.25c-1.13-1.65-.18-3.13,2.12-3.32l29.74-2.38a7.54,7.54,0,0,1,6.23,2.66l17.56,25.48c1.14,1.65.19,3.14-2.11,3.32l-29.74,2.38A7.51,7.51,0,0,1,181.59,170.74Z"></path><path class="cls-5" d="M218.05,170l-29.73,2.38a7.52,7.52,0,0,1-6.24-2.65l-17.56-25.49a2.24,2.24,0,0,1-.45-1.48,1.83,1.83,0,0,0,0,2.52l17.57,25.49a7.51,7.51,0,0,0,6.23,2.65L217.56,171c1.57-.12,2.49-.86,2.57-1.84A3.27,3.27,0,0,1,218.05,170Z"></path><path class="cls-40" d="M188.77,166.66,178.5,151.75c-.66-1-.11-1.83,1.24-1.94l17.39-1.39a4.39,4.39,0,0,1,3.64,1.55l10.28,14.91c.66,1,.11,1.83-1.24,1.94l-17.39,1.39A4.42,4.42,0,0,1,188.77,166.66Z"></path><path class="cls-41" d="M210.84,158.87,178,143.24l-1.92,4h0a1.14,1.14,0,0,0,.16,1.24l10.27,14.91a4.42,4.42,0,0,0,3.65,1.55l17.39-1.39a1.71,1.71,0,0,0,1.39-.69h0Z"></path><path class="cls-42" d="M188.4,159.4l-10.27-14.91c-.66-1-.11-1.83,1.24-1.94l17.39-1.39a4.39,4.39,0,0,1,3.64,1.55l10.28,14.91c.66,1,.11,1.83-1.24,1.94L192.05,161A4.42,4.42,0,0,1,188.4,159.4Z"></path></g></g></svg> 