<?xml version="1.0" encoding="UTF-8"?> <svg xmlns="http://www.w3.org/2000/svg" xmlns:xlink="http://www.w3.org/1999/xlink" viewBox="0 0 337.17 392.31"><defs><style>.cls-1{isolation:isolate;}.cls-2{fill:#242b3d;}.cls-10,.cls-20,.cls-3,.cls-35{fill:#fff;}.cls-4{fill:#7dd075;}.cls-5{fill:#b875d0;}.cls-6{fill:#5d99fa;}.cls-7{fill:#f56eab;}.cls-8{fill:#e8f1ff;}.cls-9{fill:#3e4e75;}.cls-10{opacity:0.2;}.cls-10,.cls-20,.cls-22,.cls-35,.cls-45{mix-blend-mode:overlay;}.cls-11{fill:#c4dbff;}.cls-12{fill:#a2bde8;}.cls-13{fill:url(#linear-gradient);}.cls-14{fill:#e3eeff;}.cls-15{fill:#252e45;}.cls-16{fill:url(#linear-gradient-2);}.cls-17{fill:#1f273b;}.cls-18{fill:url(#linear-gradient-3);}.cls-19{fill:url(#linear-gradient-4);}.cls-20{opacity:0.7;}.cls-21{fill:url(#linear-gradient-5);}.cls-22,.cls-35{opacity:0.5;}.cls-22{fill:url(#linear-gradient-6);}.cls-23{fill:url(#linear-gradient-7);}.cls-24{fill:#5c73ab;}.cls-25{fill:#323b54;}.cls-26{mix-blend-mode:multiply;fill:url(#linear-gradient-8);}.cls-27{fill:url(#linear-gradient-9);}.cls-28{fill:#d5d8eb;}.cls-29{fill:url(#linear-gradient-10);}.cls-30{fill:url(#linear-gradient-11);}.cls-31{fill:url(#linear-gradient-12);}.cls-32{fill:#5971a8;}.cls-33{fill:#e6efff;}.cls-34{fill:#a8c6f8;}.cls-36{fill:url(#linear-gradient-13);}.cls-37{fill:#ff266d;}.cls-38{fill:#db8973;}.cls-39{fill:#a33657;}.cls-40{fill:#f5e3df;}.cls-41{fill:#c7b1a0;}.cls-42{fill:#e3cab6;}.cls-43{fill:#555a7a;}.cls-44{fill:#393c52;}.cls-45{fill:#fffbf7;opacity:0.4;}.cls-46,.cls-47,.cls-48,.cls-49,.cls-50,.cls-51,.cls-52,.cls-55,.cls-56,.cls-57,.cls-58{fill-rule:evenodd;}.cls-46{fill:url(#linear-gradient-14);}.cls-47{fill:url(#linear-gradient-15);}.cls-48{fill:url(#linear-gradient-16);}.cls-49{fill:#fdddc8;}.cls-50{fill:url(#linear-gradient-17);}.cls-51{fill:url(#linear-gradient-18);}.cls-52{fill:url(#linear-gradient-19);}.cls-53{fill:#6f4d50;}.cls-54{fill:#7a2842;}.cls-55{fill:url(#linear-gradient-20);}.cls-56,.cls-60{fill:#cf8f5b;}.cls-57{fill:#7d4a41;}.cls-58{fill:#d9c8c5;}.cls-59{fill:#eda468;}</style><linearGradient id="linear-gradient" x1="71.12" y1="265.41" x2="293.06" y2="265.41" gradientUnits="userSpaceOnUse"><stop offset="0" stop-color="#e3eeff"></stop><stop offset="1" stop-color="#c4dbff"></stop></linearGradient><linearGradient id="linear-gradient-2" x1="216.27" y1="229.15" x2="194.8" y2="209.39" gradientUnits="userSpaceOnUse"><stop offset="0" stop-color="#405078"></stop><stop offset="1" stop-color="#252e45"></stop></linearGradient><linearGradient id="linear-gradient-3" x1="142.56" y1="70.54" x2="120.08" y2="128.2" gradientUnits="userSpaceOnUse"><stop offset="0" stop-color="#ff6459"></stop><stop offset="1" stop-color="#c72a51"></stop></linearGradient><linearGradient id="linear-gradient-4" x1="155.09" y1="70.4" x2="125.01" y2="149.06" xlink:href="#linear-gradient-3"></linearGradient><linearGradient id="linear-gradient-5" x1="143.32" y1="98.57" x2="139.53" y2="136.79" gradientUnits="userSpaceOnUse"><stop offset="0" stop-color="#fff"></stop><stop offset="1" stop-color="#cfe9ff"></stop></linearGradient><linearGradient id="linear-gradient-6" x1="130.28" y1="80.29" x2="171.21" y2="80.29" gradientUnits="userSpaceOnUse"><stop offset="0" stop-color="#fff"></stop><stop offset="1" stop-color="#fff" stop-opacity="0"></stop></linearGradient><linearGradient id="linear-gradient-7" x1="166.49" y1="211.49" x2="187.12" y2="211.49" xlink:href="#linear-gradient-2"></linearGradient><linearGradient id="linear-gradient-8" x1="155.2" y1="192.54" x2="183.84" y2="192.54" gradientUnits="userSpaceOnUse"><stop offset="0" stop-color="#fff"></stop><stop offset="0.01" stop-color="#fefeff"></stop><stop offset="0.61" stop-color="#e9ecfb"></stop><stop offset="1" stop-color="#e1e5fa"></stop></linearGradient><linearGradient id="linear-gradient-9" x1="153.87" y1="197.94" x2="179.35" y2="197.94" xlink:href="#linear-gradient-2"></linearGradient><linearGradient id="linear-gradient-10" x1="178.91" y1="179.67" x2="159.69" y2="189.29" xlink:href="#linear-gradient-8"></linearGradient><linearGradient id="linear-gradient-11" x1="122.06" y1="215.1" x2="210.31" y2="167.93" xlink:href="#linear-gradient-2"></linearGradient><linearGradient id="linear-gradient-12" x1="148.58" y1="132.01" x2="176.54" y2="201.3" xlink:href="#linear-gradient-2"></linearGradient><linearGradient id="linear-gradient-13" x1="25.64" y1="150.78" x2="23.81" y2="96.45" gradientUnits="userSpaceOnUse"><stop offset="0" stop-color="#53689c"></stop><stop offset="1" stop-color="#252e45"></stop></linearGradient><linearGradient id="linear-gradient-14" x1="239.28" y1="208.37" x2="238.53" y2="210.81" gradientUnits="userSpaceOnUse"><stop offset="0" stop-color="#fdddc8"></stop><stop offset="1" stop-color="#f8b4a8"></stop></linearGradient><linearGradient id="linear-gradient-15" x1="236.76" y1="209.4" x2="235.58" y2="213.73" xlink:href="#linear-gradient-14"></linearGradient><linearGradient id="linear-gradient-16" x1="234.9" y1="210.35" x2="233" y2="215.62" xlink:href="#linear-gradient-14"></linearGradient><linearGradient id="linear-gradient-17" x1="280.19" y1="226.33" x2="293.95" y2="224.39" gradientUnits="userSpaceOnUse"><stop offset="0" stop-color="#fbd1be"></stop><stop offset="1" stop-color="#f8b4a8"></stop></linearGradient><linearGradient id="linear-gradient-18" x1="236.65" y1="218.73" x2="242.27" y2="217.94" xlink:href="#linear-gradient-17"></linearGradient><linearGradient id="linear-gradient-19" x1="276.3" y1="208.14" x2="300.47" y2="192.7" xlink:href="#linear-gradient-17"></linearGradient><linearGradient id="linear-gradient-20" x1="215.19" y1="229.14" x2="220.09" y2="228.45" xlink:href="#linear-gradient-17"></linearGradient></defs><title>Ресурс 1</title><g class="cls-1"><g id="Слой_2" data-name="Слой 2"><g id="OBJECTS"><path class="cls-2" d="M292.55,20.87c0-1.35-1-1.9-2.13-1.22l-65.48,37.8-.66-3.24c-.22-1.08-1.34-1.38-2.52-.7l-31.14,18a5.79,5.79,0,0,0-2.51,3.6l-.63,4-4.35,2.51A4.66,4.66,0,0,0,181,85.27v65.39c0,1.35,1,1.9,2.13,1.22L290.43,89.93a4.64,4.64,0,0,0,2.12-3.67Z"></path><polygon class="cls-3" points="255.72 59.49 255.72 60.3 207.9 87.92 207.89 87.1 255.72 59.49"></polygon><polygon class="cls-3" points="248.19 78.06 248.19 78.88 200.37 106.49 200.37 105.67 248.19 78.06"></polygon><polygon class="cls-3" points="248.18 73.58 248.18 74.4 200.36 102 200.35 101.19 248.18 73.58"></polygon><polygon class="cls-3" points="248.16 69.1 248.16 69.91 200.34 97.52 200.34 96.71 248.16 69.1"></polygon><polygon class="cls-4" points="206.24 88.06 206.24 88.87 195.96 94.81 195.95 94 206.24 88.06"></polygon><polygon class="cls-5" points="263.99 54.71 264 55.53 257.32 59.38 257.32 58.57 263.99 54.71"></polygon><polygon class="cls-6" points="272.51 49.8 272.51 50.61 265.83 54.47 265.83 53.65 272.51 49.8"></polygon><polygon class="cls-3" points="208.52 115.52 208.52 116.33 200.41 121.02 200.41 120.2 208.52 115.52"></polygon><polygon class="cls-4" points="208.5 110.42 208.5 111.24 200.4 115.92 200.39 115.1 208.5 110.42"></polygon><polygon class="cls-7" points="218.4 104.71 218.4 105.53 210.3 110.2 210.3 109.38 218.4 104.71"></polygon><polygon class="cls-7" points="241.13 101.79 241.13 102.61 209.84 120.67 209.84 119.85 241.13 101.79"></polygon><polygon class="cls-3" points="220.19 98.72 220.19 99.54 200.38 110.98 200.38 110.16 220.19 98.72"></polygon><polygon class="cls-4" points="230.06 93.02 230.06 93.84 221.96 98.52 221.95 97.7 230.06 93.02"></polygon><polygon class="cls-4" points="208.53 120.61 208.53 121.42 200.43 126.11 200.42 125.29 208.53 120.61"></polygon><polygon class="cls-5" points="208.54 125.71 208.55 126.52 200.44 131.2 200.44 130.39 208.54 125.71"></polygon><polygon class="cls-3" points="222.01 117.94 222.01 118.75 213.91 123.43 213.9 122.62 222.01 117.94"></polygon><polygon class="cls-6" points="208.56 130.8 208.56 131.61 200.45 136.3 200.45 135.48 208.56 130.8"></polygon><path class="cls-8" d="M220.66,57.5l-.33.57c-.18.31-.18.65,0,.76a.34.34,0,0,0,.33,0,.9.9,0,0,0,.33-.34l.33-.58.33.2a.34.34,0,0,0,.33,0,.86.86,0,0,0,.33-.35c.18-.31.18-.65,0-.75l-.33-.19.33-.57c.17-.32.17-.65,0-.75a.31.31,0,0,0-.33,0,.93.93,0,0,0-.33.35l-.32.56-.34-.18a.29.29,0,0,0-.32,0,.93.93,0,0,0-.33.35c-.18.31-.18.64,0,.75Z"></path><path class="cls-9" d="M277.32,38.33V34.77c0-1.35-.95-1.9-2.13-1.22L187.28,84.3A4.64,4.64,0,0,0,185.16,88v3.57c0,1.35,1,1.89,2.13,1.21L275.21,42A4.64,4.64,0,0,0,277.32,38.33Z"></path><path class="cls-8" d="M281.78,32.19l6.09-3.52a1.23,1.23,0,0,0,.56-1c0-.35-.25-.5-.57-.32l-6.09,3.52a1.28,1.28,0,0,0-.56,1C281.21,32.23,281.47,32.37,281.78,32.19Z"></path><path class="cls-8" d="M287.88,32.24l-6.09,3.51a1.25,1.25,0,0,0-.56,1c0,.36.25.49.56.32l6.09-3.52a1.23,1.23,0,0,0,.56-1C288.44,32.21,288.19,32.06,287.88,32.24Z"></path><path class="cls-8" d="M287.87,29.81l-6.09,3.52a1.22,1.22,0,0,0-.56,1c0,.36.26.5.56.32l6.09-3.52a1.18,1.18,0,0,0,.56-1C288.43,29.77,288.18,29.63,287.87,29.81Z"></path><path class="cls-10" d="M268.93,102.35l21.5-12.42a4.64,4.64,0,0,0,2.12-3.67V20.87c0-1.35-1-1.9-2.13-1.22l-65.48,37.8-.66-3.24c-.22-1.08-1.34-1.38-2.52-.7l-14.37,8.3Z"></path><path class="cls-11" d="M174.13,1.51c0-1.35-1-1.9-2.13-1.22L106.52,38.1l-.66-3.25c-.22-1.08-1.34-1.38-2.52-.7l-31.14,18a5.82,5.82,0,0,0-2.51,3.6l-.63,4L64.7,62.24a4.71,4.71,0,0,0-2.12,3.68v65.39c0,1.35,1,1.89,2.14,1.21L172,70.58a4.67,4.67,0,0,0,2.12-3.67Z"></path><path class="cls-8" d="M102.24,38.14l-.33.57c-.18.31-.18.66,0,.76a.33.33,0,0,0,.33,0,.93.93,0,0,0,.33-.35l.33-.57.32.19a.35.35,0,0,0,.34,0,1,1,0,0,0,.33-.35c.18-.31.17-.66,0-.76l-.34-.19.33-.56c.18-.32.18-.66,0-.76a.33.33,0,0,0-.33,0,.93.93,0,0,0-.33.35l-.33.56-.33-.18a.33.33,0,0,0-.33,0,.93.93,0,0,0-.33.35c-.18.31-.18.65,0,.76Z"></path><path class="cls-8" d="M158.9,19V15.41c0-1.35-1-1.89-2.13-1.21L68.85,65a4.69,4.69,0,0,0-2.12,3.67l0,3.56c0,1.35,1,1.9,2.13,1.22l87.9-50.75A4.64,4.64,0,0,0,158.9,19Z"></path><path class="cls-8" d="M163.35,12.84l6.1-3.52a1.2,1.2,0,0,0,.55-1c0-.35-.25-.5-.56-.32l-6.09,3.51a1.25,1.25,0,0,0-.56,1C162.79,12.87,163.05,13,163.35,12.84Z"></path><path class="cls-8" d="M169.46,12.88l-6.1,3.52a1.28,1.28,0,0,0-.56,1c0,.36.26.5.57.32l6.09-3.52a1.2,1.2,0,0,0,.56-1C170,12.85,169.77,12.7,169.46,12.88Z"></path><path class="cls-8" d="M169.45,10.45,163.36,14a1.23,1.23,0,0,0-.56,1c0,.36.25.5.56.32l6.09-3.51a1.23,1.23,0,0,0,.56-1C170,10.42,169.76,10.27,169.45,10.45Z"></path><path class="cls-2" d="M111.55,132.82c0-1.35-1-1.9-2.14-1.23L43.93,169.4l-.65-3.24c-.22-1.08-1.34-1.38-2.52-.7l-31.14,18A5.69,5.69,0,0,0,7.11,187l-.64,4-4.35,2.51A4.69,4.69,0,0,0,0,197.22v65.39c0,1.35,1,1.9,2.13,1.22l107.3-61.95a4.69,4.69,0,0,0,2.12-3.67Z"></path><polygon class="cls-3" points="71.72 172.46 71.73 173.28 23.9 200.89 23.9 200.07 71.72 172.46"></polygon><polygon class="cls-3" points="64.19 191.03 64.19 191.85 16.37 219.46 16.37 218.64 64.19 191.03"></polygon><polygon class="cls-3" points="64.18 186.55 64.18 187.37 16.36 214.98 16.36 214.16 64.18 186.55"></polygon><polygon class="cls-3" points="64.17 182.07 64.17 182.88 16.35 210.49 16.35 209.68 64.17 182.07"></polygon><polygon class="cls-4" points="22.24 201.03 22.25 201.84 11.96 207.78 11.96 206.97 22.24 201.03"></polygon><polygon class="cls-5" points="80 167.68 80 168.5 73.32 172.35 73.32 171.54 80 167.68"></polygon><polygon class="cls-6" points="88.51 162.77 88.51 163.58 81.83 167.44 81.83 166.62 88.51 162.77"></polygon><polygon class="cls-3" points="24.52 228.49 24.52 229.3 16.41 233.99 16.41 233.17 24.52 228.49"></polygon><polygon class="cls-4" points="24.51 223.39 24.51 224.21 16.4 228.89 16.4 228.07 24.51 223.39"></polygon><polygon class="cls-7" points="34.4 217.68 34.41 218.5 26.3 223.18 26.3 222.35 34.4 217.68"></polygon><polygon class="cls-7" points="57.13 214.76 57.13 215.58 25.85 233.64 25.84 232.82 57.13 214.76"></polygon><polygon class="cls-3" points="36.19 211.69 36.19 212.51 16.39 223.95 16.39 223.13 36.19 211.69"></polygon><polygon class="cls-4" points="46.07 205.99 46.07 206.81 37.96 211.49 37.96 210.67 46.07 205.99"></polygon><polygon class="cls-4" points="24.54 233.58 24.54 234.4 16.43 239.08 16.43 238.26 24.54 233.58"></polygon><polygon class="cls-5" points="24.55 238.68 24.55 239.49 16.44 244.18 16.44 243.36 24.55 238.68"></polygon><polygon class="cls-3" points="38.02 230.91 38.02 231.72 29.91 236.4 29.91 235.59 38.02 230.91"></polygon><polygon class="cls-6" points="24.56 243.77 24.57 244.59 16.46 249.27 16.46 248.45 24.56 243.77"></polygon><path class="cls-8" d="M39.65,169.45l-.33.57c-.17.31-.17.65,0,.75a.31.31,0,0,0,.33,0,1,1,0,0,0,.32-.34l.33-.58.33.19a.31.31,0,0,0,.33,0,.86.86,0,0,0,.33-.35c.18-.31.18-.65,0-.75l-.33-.19.33-.57c.18-.32.18-.65,0-.76a.34.34,0,0,0-.33,0,1,1,0,0,0-.34.35l-.32.56-.33-.18a.31.31,0,0,0-.33,0,.93.93,0,0,0-.33.35c-.18.31-.18.64,0,.75Z"></path><path class="cls-9" d="M96.32,150.28v-3.56c0-1.35-1-1.9-2.14-1.22L6.27,196.25a4.69,4.69,0,0,0-2.12,3.67v3.57c0,1.35,1,1.89,2.13,1.21L94.2,154A4.69,4.69,0,0,0,96.32,150.28Z"></path><path class="cls-8" d="M100.77,144.14l6.09-3.52a1.23,1.23,0,0,0,.56-1c0-.35-.25-.5-.56-.32l-6.09,3.52a1.25,1.25,0,0,0-.56,1C100.21,144.18,100.46,144.32,100.77,144.14Z"></path><path class="cls-8" d="M106.87,144.19l-6.09,3.51a1.25,1.25,0,0,0-.56,1c0,.36.26.5.56.33l6.1-3.52a1.23,1.23,0,0,0,.56-1C107.43,144.16,107.18,144,106.87,144.19Z"></path><path class="cls-8" d="M106.87,141.76l-6.1,3.52a1.25,1.25,0,0,0-.56,1c0,.36.26.5.57.32l6.09-3.52a1.23,1.23,0,0,0,.56-1C107.43,141.72,107.18,141.58,106.87,141.76Z"></path><path class="cls-10" d="M87.92,214.3l21.51-12.42a4.69,4.69,0,0,0,2.12-3.67V132.82c0-1.35-1-1.9-2.14-1.23L43.93,169.4l-.65-3.24c-.22-1.08-1.34-1.38-2.52-.7l-14.37,8.29Z"></path><path class="cls-12" d="M293.35,227.18c0-4.27-1.53-7.29-4-8.7-18.8-10.93-68.35-40.27-87.15-51.2,2.44,1.42,4,4.43,4,8.71l.19,66,87.15,51.19Z"></path><path class="cls-13" d="M205.91,160.94c-3.42-2-8.15-1.71-13.37,1.3L89.85,221.54c-10.36,6-18.77,20.53-18.73,32.44l.19,66,87.15,51.19-.19-66c0-11.91,8.37-26.46,18.73-32.44l102.7-59.3c5.21-3,9.94-3.28,13.36-1.29C274.26,201.21,224.71,171.87,205.91,160.94Z"></path><path class="cls-14" d="M279.7,213.43c10.36-6,18.81-1.16,18.85,10.75l.18,66-5.19,3-.19-66c0-8.61-6.14-12.09-13.64-7.76L177,278.71c-7.49,4.32-13.57,14.85-13.55,23.45l.19,66-5.2,3-.19-66c0-11.91,8.37-26.46,18.73-32.44Z"></path><path class="cls-15" d="M238.61,214.59l-42.51,24.7a1.4,1.4,0,0,1-1.29,0l-17.41-10a.45.45,0,0,1-.27-.38V230a.45.45,0,0,0,.27.37l17.41,10.05a1.4,1.4,0,0,0,1.29,0l42.5-24.7a.45.45,0,0,0,.27-.37v-1.17A.46.46,0,0,1,238.61,214.59Z"></path><path class="cls-16" d="M238.6,213.84c.36.21.36.54,0,.75l-42.51,24.7a1.4,1.4,0,0,1-1.29,0l-17.41-10a.4.4,0,0,1,0-.75l42.5-24.7a1.43,1.43,0,0,1,1.29,0Z"></path><path class="cls-17" d="M195.06,229l1.81,1a.6.6,0,0,0,.58,0l2-1.13c.16-.09.16-.24,0-.34l-1.81-1a.6.6,0,0,0-.58,0l-1.95,1.13C194.9,228.7,194.9,228.85,195.06,229Z"></path><path class="cls-17" d="M201.64,230.86l2-1.13c.16-.1.16-.25,0-.34l-1.8-1a.65.65,0,0,0-.59,0l-1.95,1.14c-.16.09-.16.24,0,.34l1.8,1A.68.68,0,0,0,201.64,230.86Z"></path><path class="cls-17" d="M196.36,231.5l1.8,1a.68.68,0,0,0,.59,0l1.95-1.13c.16-.1.16-.25,0-.34l-1.8-1a.68.68,0,0,0-.59,0l-2,1.14C196.19,231.25,196.19,231.4,196.36,231.5Z"></path><path class="cls-17" d="M207,231.23l-2.29-1.32a.66.66,0,0,0-.58,0l-3.39,2c-.16.09-.16.24,0,.34l2.29,1.32a.66.66,0,0,0,.58,0l3.4-2C207.14,231.48,207.14,231.33,207,231.23Z"></path><path class="cls-17" d="M202.73,233.71l-2.3-1.33a.66.66,0,0,0-.58,0L197.1,234c-.16.1-.16.25,0,.34l2.29,1.32a.6.6,0,0,0,.58,0l2.76-1.6A.17.17,0,0,0,202.73,233.71Z"></path><path class="cls-17" d="M192.17,230.63l1.81,1a.6.6,0,0,0,.58,0l1.95-1.13c.16-.1.16-.25,0-.34l-1.81-1a.6.6,0,0,0-.58,0l-2,1.13C192,230.39,192,230.54,192.17,230.63Z"></path><path class="cls-17" d="M186.33,227.09l-2,1.13a.18.18,0,0,0,0,.34l1.81,1a.68.68,0,0,0,.59,0l1.95-1.13a.18.18,0,0,0,0-.34l-1.81-1A.62.62,0,0,0,186.33,227.09Z"></path><path class="cls-17" d="M185.83,229.81l-1.8-1.05a.66.66,0,0,0-.58,0l-2,1.14c-.16.09-.16.24,0,.34l1.81,1a.65.65,0,0,0,.59,0l2-1.13C186,230.06,186,229.9,185.83,229.81Z"></path><path class="cls-17" d="M190.16,230.59l-1.81-1a.6.6,0,0,0-.58,0l-3.39,2c-.16.09-.16.24,0,.34l1.81,1a.6.6,0,0,0,.58,0l3.4-2C190.33,230.84,190.33,230.68,190.16,230.59Z"></path><path class="cls-17" d="M193.75,231.8l-1.8-1a.68.68,0,0,0-.59,0l-4.16,2.42a.17.17,0,0,0,0,.33l1.81,1.05a.68.68,0,0,0,.59,0l4.16-2.42C193.92,232.05,193.92,231.9,193.75,231.8Z"></path><path class="cls-17" d="M198,232.64l-1.8-1a.68.68,0,0,0-.59,0l-5.55,3.23a.18.18,0,0,0,0,.34l1.81,1a.6.6,0,0,0,.58,0L198,233C198.16,232.88,198.16,232.73,198,232.64Z"></path><path class="cls-17" d="M199.13,235.8l-2.3-1.33a.66.66,0,0,0-.58,0l-3.39,2c-.16.1-.16.25,0,.34l2.3,1.33a.63.63,0,0,0,.58,0l3.39-2A.17.17,0,0,0,199.13,235.8Z"></path><path class="cls-17" d="M183.07,228.12l-1-.61a.68.68,0,0,0-.59,0l-2,1.14c-.16.1-.16.25,0,.34l1.06.61a.66.66,0,0,0,.58,0l2-1.14C183.23,228.36,183.23,228.21,183.07,228.12Z"></path><path class="cls-17" d="M195,222.05l-1.95,1.13c-.16.1-.16.25,0,.34l1.81,1a.62.62,0,0,0,.59,0l2-1.13c.16-.09.16-.24,0-.34l-1.81-1A.68.68,0,0,0,195,222.05Z"></path><path class="cls-17" d="M191.41,222.06l1.05.61a.73.73,0,0,0,.58,0l2-1.15c.16-.09.16-.24,0-.34l-1.05-.6a.66.66,0,0,0-.58,0l-2,1.14C191.24,221.81,191.25,222,191.41,222.06Z"></path><path class="cls-17" d="M188.42,223.79l1.06.61a.66.66,0,0,0,.58,0l2-1.15a.17.17,0,0,0,0-.33l-1.05-.61a.68.68,0,0,0-.59,0l-2,1.14C188.26,223.55,188.26,223.7,188.42,223.79Z"></path><path class="cls-17" d="M185.44,225.52l1.05.61a.66.66,0,0,0,.58,0l2-1.14c.16-.09.16-.24,0-.34l-1.06-.6a.63.63,0,0,0-.58,0l-2,1.15A.17.17,0,0,0,185.44,225.52Z"></path><path class="cls-17" d="M182.46,227.26l1,.61a.63.63,0,0,0,.58,0l2-1.14c.17-.09.16-.24,0-.33l-1.05-.61a.6.6,0,0,0-.58,0l-2,1.14C182.29,227,182.29,227.16,182.46,227.26Z"></path><path class="cls-17" d="M203.67,217l-1.95,1.13c-.16.1-.16.25,0,.34l1.81,1.05a.65.65,0,0,0,.59,0l1.95-1.13c.16-.09.16-.24,0-.34l-1.81-1A.68.68,0,0,0,203.67,217Z"></path><path class="cls-17" d="M200.36,216.86l1,.6a.6.6,0,0,0,.58,0l2-1.14c.16-.09.16-.24,0-.34l-1-.6a.6.6,0,0,0-.58,0l-2,1.14C200.19,216.61,200.19,216.76,200.36,216.86Z"></path><path class="cls-17" d="M197.37,218.59l1,.61a.68.68,0,0,0,.59,0l2-1.14c.16-.1.16-.25,0-.34l-1.05-.61a.68.68,0,0,0-.59,0l-2,1.14C197.21,218.35,197.21,218.5,197.37,218.59Z"></path><path class="cls-17" d="M206.32,213.39l1.05.61a.66.66,0,0,0,.58,0l2-1.15a.17.17,0,0,0,0-.33l-1-.61a.68.68,0,0,0-.59,0l-2,1.14A.18.18,0,0,0,206.32,213.39Z"></path><path class="cls-17" d="M203.34,215.12l1,.61a.66.66,0,0,0,.58,0l2-1.14c.16-.09.15-.25,0-.34l-1.05-.6a.63.63,0,0,0-.58,0l-2,1.14C203.18,214.88,203.18,215,203.34,215.12Z"></path><path class="cls-17" d="M215.27,208.19l1,.6a.62.62,0,0,0,.59,0l2-1.14a.17.17,0,0,0,0-.33l-1.05-.61a.68.68,0,0,0-.59,0l-2,1.14C215.11,207.94,215.11,208.09,215.27,208.19Z"></path><path class="cls-17" d="M212.29,209.92l1.05.61a.66.66,0,0,0,.58,0l2-1.14c.17-.1.16-.25,0-.34l-1-.61a.66.66,0,0,0-.58,0l-2,1.15A.17.17,0,0,0,212.29,209.92Z"></path><path class="cls-17" d="M224.7,210.52l-1.81-1a.6.6,0,0,0-.58,0l-1.95,1.13c-.16.09-.16.24,0,.34l1.81,1a.6.6,0,0,0,.58,0l2-1.13A.18.18,0,0,0,224.7,210.52Z"></path><path class="cls-17" d="M223.84,212.22l1.81,1.05a.66.66,0,0,0,.58,0l4.16-2.42c.16-.09.16-.24,0-.34l-1.81-1a.66.66,0,0,0-.58,0l-4.17,2.42A.18.18,0,0,0,223.84,212.22Z"></path><path class="cls-17" d="M219.28,213.67a.63.63,0,0,0,.58,0l2-1.13a.18.18,0,0,0,0-.34l-1.81-1a.6.6,0,0,0-.58,0l-1.95,1.13c-.16.09-.16.24,0,.34Z"></path><path class="cls-17" d="M223.46,214.88l1.95-1.13c.16-.1.16-.25,0-.34l-1.81-1a.66.66,0,0,0-.58,0l-2,1.14a.17.17,0,0,0,0,.33l1.81,1A.66.66,0,0,0,223.46,214.88Z"></path><path class="cls-17" d="M225.29,214.68l1.81,1a.62.62,0,0,0,.59,0l5.55-3.22c.16-.1.16-.25,0-.34l-1.81-1a.68.68,0,0,0-.59,0l-5.55,3.23C225.13,214.43,225.13,214.58,225.29,214.68Z"></path><path class="cls-17" d="M236.53,214.06l-2.29-1.32a.6.6,0,0,0-.58,0l-3.39,2a.17.17,0,0,0,0,.33l2.29,1.33a.66.66,0,0,0,.58,0l3.39-2C236.69,214.3,236.69,214.15,236.53,214.06Z"></path><path class="cls-17" d="M220.57,216.56l2-1.14a.17.17,0,0,0,0-.33L220.71,214a.66.66,0,0,0-.58,0l-1.95,1.13c-.16.1-.16.25,0,.34l1.81,1.05A.66.66,0,0,0,220.57,216.56Z"></path><path class="cls-17" d="M224.76,217.42l2-1.13c.16-.09.16-.24,0-.34l-1.81-1a.62.62,0,0,0-.59,0L222.36,216a.18.18,0,0,0,0,.34l1.81,1A.62.62,0,0,0,224.76,217.42Z"></path><path class="cls-17" d="M232.18,216.59l-2.3-1.33a.66.66,0,0,0-.58,0l-2.75,1.61a.17.17,0,0,0,0,.33l2.29,1.33a.66.66,0,0,0,.58,0l2.76-1.6A.18.18,0,0,0,232.18,216.59Z"></path><path class="cls-17" d="M221.87,219.1l1.95-1.13c.16-.09.16-.24,0-.34l-1.8-1a.65.65,0,0,0-.59,0l-1.95,1.13a.18.18,0,0,0,0,.34l1.81,1A.62.62,0,0,0,221.87,219.1Z"></path><path class="cls-17" d="M228.56,218.69l-2.3-1.32a.66.66,0,0,0-.58,0l-3.39,2a.18.18,0,0,0,0,.34l2.3,1.32a.6.6,0,0,0,.58,0l3.39-2C228.72,218.94,228.72,218.79,228.56,218.69Z"></path><path class="cls-17" d="M223.2,209.3l1.81,1a.63.63,0,0,0,.58,0l1.95-1.13c.16-.1.17-.25,0-.34l-1.81-1a.62.62,0,0,0-.59,0l-2,1.13C223,209.05,223,209.2,223.2,209.3Z"></path><path class="cls-17" d="M218.91,208.49l1.81,1a.65.65,0,0,0,.59,0l3.39-2a.17.17,0,0,0,0-.33l-1.81-1a.68.68,0,0,0-.59,0l-3.39,2C218.75,208.25,218.75,208.4,218.91,208.49Z"></path><path class="cls-17" d="M220.52,209.66l-1.81-1a.66.66,0,0,0-.58,0l-2,1.14a.17.17,0,0,0,0,.33l1.81,1a.68.68,0,0,0,.59,0l2-1.13C220.68,209.9,220.68,209.75,220.52,209.66Z"></path><path class="cls-17" d="M215.23,210.29l-1.95,1.13c-.16.1-.16.25,0,.34l1.81,1.05a.68.68,0,0,0,.59,0l1.95-1.14a.17.17,0,0,0,0-.33l-1.82-1.05A.66.66,0,0,0,215.23,210.29Z"></path><path class="cls-17" d="M192.12,223.73l-2,1.13a.18.18,0,0,0,0,.34l1.81,1a.62.62,0,0,0,.59,0l1.95-1.13c.16-.1.16-.25,0-.34l-1.81-1A.6.6,0,0,0,192.12,223.73Z"></path><path class="cls-17" d="M219,220.78l2-1.13c.16-.09.16-.24,0-.34l-1.8-1a.62.62,0,0,0-.59,0l-1.95,1.13c-.16.1-.16.25,0,.34l1.81,1A.62.62,0,0,0,219,220.78Z"></path><path class="cls-17" d="M216.09,222.46l1.95-1.13c.16-.09.16-.24,0-.34l-1.8-1a.62.62,0,0,0-.59,0l-1.95,1.13c-.16.09-.16.24,0,.34l1.81,1A.62.62,0,0,0,216.09,222.46Z"></path><path class="cls-17" d="M213.2,224.14l2-1.13c.16-.09.16-.25,0-.34l-1.8-1a.65.65,0,0,0-.59,0l-1.95,1.14c-.16.09-.16.24,0,.34l1.81,1A.62.62,0,0,0,213.2,224.14Z"></path><path class="cls-17" d="M212.34,212l-2,1.13c-.16.1-.16.25,0,.34l1.81,1.05a.68.68,0,0,0,.59,0l2-1.14c.16-.09.16-.24,0-.34l-1.82-1A.66.66,0,0,0,212.34,212Z"></path><path class="cls-17" d="M216.53,212.84,214.58,214c-.16.09-.16.24,0,.34l1.81,1a.66.66,0,0,0,.58,0l1.95-1.13c.16-.1.16-.25,0-.34l-1.81-1A.6.6,0,0,0,216.53,212.84Z"></path><path class="cls-17" d="M209.46,213.65l-2,1.13c-.16.1-.16.25,0,.34l1.81,1a.68.68,0,0,0,.59,0l1.95-1.14c.16-.09.16-.24,0-.33l-1.8-1A.66.66,0,0,0,209.46,213.65Z"></path><path class="cls-17" d="M213.64,214.51l-1.95,1.14c-.16.09-.16.24,0,.34l1.81,1a.66.66,0,0,0,.58,0l2-1.13c.15-.1.16-.25,0-.34l-1.82-1.05A.66.66,0,0,0,213.64,214.51Z"></path><path class="cls-17" d="M206.56,215.33l-1.95,1.13c-.16.1-.16.25,0,.34l1.81,1a.65.65,0,0,0,.59,0l2-1.13a.17.17,0,0,0,0-.33l-1.82-1A.66.66,0,0,0,206.56,215.33Z"></path><path class="cls-17" d="M217.68,218.24l1.95-1.14c.16-.09.16-.24,0-.34l-1.81-1a.66.66,0,0,0-.58,0l-2,1.13c-.16.1-.16.25,0,.34l1.81,1.05A.66.66,0,0,0,217.68,218.24Z"></path><path class="cls-17" d="M210.75,216.19l-1.95,1.14c-.16.09-.16.24,0,.34l1.81,1a.66.66,0,0,0,.58,0l1.95-1.13c.16-.1.16-.25,0-.34l-1.81-1.05A.66.66,0,0,0,210.75,216.19Z"></path><path class="cls-17" d="M214.79,219.92l2-1.14c.16-.09.16-.24,0-.34l-1.81-1a.66.66,0,0,0-.58,0l-1.95,1.13c-.17.1-.16.25,0,.34l1.81,1A.66.66,0,0,0,214.79,219.92Z"></path><path class="cls-17" d="M207.86,217.87l-2,1.14a.17.17,0,0,0,0,.33l1.81,1a.66.66,0,0,0,.58,0l1.95-1.14c.17-.09.17-.24,0-.33l-1.8-1A.68.68,0,0,0,207.86,217.87Z"></path><path class="cls-17" d="M211.9,221.6l1.95-1.14c.16-.09.16-.24,0-.34l-1.81-1a.66.66,0,0,0-.58,0l-2,1.13c-.16.1-.16.25,0,.34l1.81,1A.63.63,0,0,0,211.9,221.6Z"></path><path class="cls-17" d="M205,219.55,203,220.69c-.16.09-.16.24,0,.34l1.81,1a.66.66,0,0,0,.58,0l2-1.14c.17-.09.17-.24,0-.33l-1.8-1A.68.68,0,0,0,205,219.55Z"></path><path class="cls-17" d="M209,223.28l2-1.14c.16-.09.16-.24,0-.34l-1.81-1a.66.66,0,0,0-.58,0l-1.95,1.13c-.16.1-.16.25,0,.34l1.81,1.05A.66.66,0,0,0,209,223.28Z"></path><path class="cls-17" d="M202.08,221.23l-2,1.14c-.16.09-.16.24,0,.34l1.81,1a.66.66,0,0,0,.58,0l1.95-1.14c.17-.09.16-.24,0-.33l-1.8-1.05A.68.68,0,0,0,202.08,221.23Z"></path><path class="cls-17" d="M206.12,225l1.95-1.13c.16-.09.16-.24,0-.34l-1.81-1a.6.6,0,0,0-.58,0l-2,1.13c-.16.1-.16.25,0,.34l1.81,1A.6.6,0,0,0,206.12,225Z"></path><path class="cls-17" d="M199.19,222.91l-1.95,1.14a.17.17,0,0,0,0,.33l1.81,1.05a.66.66,0,0,0,.58,0l2-1.14c.16-.09.17-.24,0-.33l-1.8-1.05A.68.68,0,0,0,199.19,222.91Z"></path><path class="cls-17" d="M210.31,225.82l1.95-1.13c.16-.09.16-.25,0-.34l-1.8-1a.62.62,0,0,0-.59,0l-2,1.13c-.16.09-.16.24,0,.34l1.81,1A.62.62,0,0,0,210.31,225.82Z"></path><path class="cls-17" d="M203.23,226.63l2-1.13c.16-.09.16-.24,0-.34l-1.81-1a.6.6,0,0,0-.58,0l-1.95,1.13c-.16.1-.16.25,0,.34l1.81,1A.6.6,0,0,0,203.23,226.63Z"></path><path class="cls-17" d="M196.3,224.59l-2,1.14a.17.17,0,0,0,0,.33l1.81,1.05a.66.66,0,0,0,.58,0l2-1.14a.17.17,0,0,0,0-.33l-1.82-1A.66.66,0,0,0,196.3,224.59Z"></path><path class="cls-17" d="M207.42,227.5l2-1.13c.16-.1.16-.25,0-.34l-1.8-1a.62.62,0,0,0-.59,0L205,226.12c-.16.09-.16.24,0,.34l1.8,1A.68.68,0,0,0,207.42,227.5Z"></path><path class="cls-17" d="M200.34,228.31l1.95-1.13c.16-.09.16-.24,0-.34l-1.81-1a.6.6,0,0,0-.58,0l-2,1.13c-.16.1-.16.24,0,.34l1.81,1A.6.6,0,0,0,200.34,228.31Z"></path><path class="cls-17" d="M204.53,229.18l1.95-1.13c.16-.1.16-.25,0-.34l-1.8-1a.65.65,0,0,0-.59,0l-2,1.14c-.16.09-.16.24,0,.34l1.8,1A.68.68,0,0,0,204.53,229.18Z"></path><path class="cls-17" d="M224.29,221.17,222,219.85a.68.68,0,0,0-.59,0L205,229.37c-.16.1-.16.25,0,.34l2.29,1.33a.66.66,0,0,0,.58,0l16.39-9.53C224.45,221.42,224.45,221.27,224.29,221.17Z"></path><path class="cls-17" d="M200.78,218.69l-1.95,1.13c-.16.1-.16.25,0,.34l1.81,1a.62.62,0,0,0,.59,0l2-1.13c.16-.09.16-.24,0-.34l-1.81-1A.62.62,0,0,0,200.78,218.69Z"></path><path class="cls-17" d="M197.89,220.37l-1.95,1.13c-.16.1-.16.25,0,.34l1.81,1a.62.62,0,0,0,.59,0l1.95-1.13a.18.18,0,0,0,0-.34l-1.81-1A.62.62,0,0,0,197.89,220.37Z"></path><path class="cls-17" d="M194.39,220.32l1.05.61a.66.66,0,0,0,.58,0l2-1.14c.17-.09.17-.25,0-.34l-1.05-.61a.68.68,0,0,0-.59,0l-2,1.15A.17.17,0,0,0,194.39,220.32Z"></path><path class="cls-17" d="M209.31,211.66l1.05.6a.66.66,0,0,0,.58,0l2-1.14c.16-.09.16-.24,0-.34l-1.05-.6a.6.6,0,0,0-.58,0l-2,1.14C209.14,211.41,209.14,211.56,209.31,211.66Z"></path><path class="cls-17" d="M218.25,206.46l1.05.6a.68.68,0,0,0,.59,0l2-1.14a.18.18,0,0,0,0-.34l-1-.6a.62.62,0,0,0-.59,0l-2,1.14C218.09,206.21,218.09,206.36,218.25,206.46Z"></path><path class="cls-17" d="M188.57,229.42l1.81,1.05a.66.66,0,0,0,.58,0l1.95-1.14c.16-.09.17-.24,0-.33L191.1,228a.66.66,0,0,0-.58,0l-2,1.14A.17.17,0,0,0,188.57,229.42Z"></path><path class="cls-17" d="M193.41,226.27l-1.95,1.14a.17.17,0,0,0,0,.33l1.81,1a.66.66,0,0,0,.58,0l2-1.14c.16-.09.17-.24,0-.34l-1.81-1A.66.66,0,0,0,193.41,226.27Z"></path><path class="cls-17" d="M189.23,225.41l-2,1.13a.18.18,0,0,0,0,.34l1.81,1a.62.62,0,0,0,.59,0l2-1.13c.16-.1.16-.25,0-.34l-1.81-1A.63.63,0,0,0,189.23,225.41Z"></path><path class="cls-18" d="M160.92,65c-1.58-.92-3.77-.79-6.19.6L113.36,89.53c-4.82,2.78-8.7,9.51-8.68,15v26.21c0,2.75,1,4.69,2.54,5.6l3.5,2c6.63,3.84-2.39-1.47,4.24,2.38-1.57-.91-2.54-2.85-2.54-5.6V109c0-5.54,3.86-12.27,8.68-15l41.37-23.89c2.42-1.39,4.61-1.52,6.19-.6C160.87,64.93,168.72,69.57,160.92,65Z"></path><path class="cls-19" d="M162.47,70.06c4.81-2.77,8.72-.54,8.74,5v26.21c0,5.53-3.88,12.27-8.69,15l-41.36,23.88c-4.82,2.78-8.73.55-8.74-5V109c0-5.54,3.86-12.27,8.68-15Z"></path><path class="cls-20" d="M113.05,135.52V109.31c0-5.53,3.87-12.27,8.68-15L163.1,70.38c2.14-1.24,4.11-1.47,5.63-.87-1.59-1-3.81-.87-6.26.55L121.1,94c-4.82,2.78-8.7,9.51-8.68,15v26.2c0,3.07,1.21,5.11,3.1,5.86C114,140.14,113.05,138.23,113.05,135.52Z"></path><path class="cls-21" d="M136,95.42a4.4,4.4,0,0,1,2.55-.58l12.69,1.09c3.15.28,3.16,3.68,0,7.58l-12.64,15.72a9.86,9.86,0,0,1-2.54,2.36c-1.88,1.09-3.18.12-3.19-2.84l0-16.82C132.79,99,134.08,96.5,136,95.42Z"></path><path class="cls-22" d="M168.65,69.45h0c-7.79-4.53.06.11-7.74-4.42-1.58-.92-3.77-.79-6.19.6L130.28,79.76h16.58l24.35,16.37V75.05C171.2,72.29,170.22,70.36,168.65,69.45Z"></path><g class="cls-1"><polygon class="cls-23" points="166.49 217.02 187.12 204.99 187.11 205.96 166.49 217.99 166.49 217.02"></polygon><polygon class="cls-24" points="166.49 217.17 187.12 205.14 187.12 204.99 166.49 217.02 166.49 217.17"></polygon><path class="cls-25" d="M175.05,198a1,1,0,0,1-.44-.46,1.65,1.65,0,0,1,0-1.14c.12-.37,1.06-4,2.15-8.17s2.28-8.8,2.42-9.15a.43.43,0,0,1,.19-.24l-20.63,12a.5.5,0,0,0-.19.25c-.13.34-1.35,5-2.41,9.14s-2,7.8-2.16,8.17a1.59,1.59,0,0,0,0,1.14,1,1,0,0,0,.43.46l12.07,7,20.63-12Z"></path><path class="cls-26" d="M176.74,188.25c1.07-4.13,2.28-8.8,2.42-9.15a.43.43,0,0,1,.19-.24l-20.63,12a.5.5,0,0,0-.19.25c-.13.34-1.35,5-2.41,9.14l-.92,3.54,4.25,1.58a14.33,14.33,0,0,0,7.81.47c2.27-.54,11.28-2,16.58-2.78L175.05,198a1,1,0,0,1-.44-.46,1.65,1.65,0,0,1,0-1.14C174.71,196.05,175.65,192.43,176.74,188.25Z"></path><path class="cls-27" d="M154.61,210a.94.94,0,0,1-.44-.46,1.65,1.65,0,0,1,0-1.14c.13-.37,1.07-4,2.16-8.16s2.28-8.81,2.41-9.15a.48.48,0,0,1,.19-.24L179.24,179a.48.48,0,0,1,.11-.09l-20.63,12a.5.5,0,0,0-.19.25c-.13.34-1.35,5-2.41,9.14s-2,7.8-2.16,8.17a1.59,1.59,0,0,0,0,1.14,1,1,0,0,0,.43.46l12.07,7,.16-.1Z"></path><polygon class="cls-28" points="160.72 190.7 181.34 178.66 181.34 179.64 160.72 191.67 160.72 190.7"></polygon><path class="cls-29" d="M180.23,178a1.6,1.6,0,0,0-1.49-.19l-20.62,12a1.58,1.58,0,0,1,1.49.2l1.11.64,20.62-12Z"></path><path class="cls-15" d="M160.72,190.7v1l-1.11-.64c-.09-.05-.86-.47-1.08.11-.13.34-1.35,5-2.41,9.14s-2,7.8-2.16,8.17a1.59,1.59,0,0,0,0,1.14,1,1,0,0,0,.43.46l12.07,7v1l-12.07-7a2.75,2.75,0,0,1-1.12-1.26,2.8,2.8,0,0,1-.14-2.08c.12-.34,1.14-4.29,2.14-8.11,1.38-5.34,2.3-8.87,2.43-9.22.32-.84,1.21-.68,1.88-.29Z"></path></g><path class="cls-15" d="M123.27,220.79l-1.91-10.1-2.66-.8,1.91,10.1a1.45,1.45,0,0,0,1,1.23l2.66.8A1.47,1.47,0,0,1,123.27,220.79Z"></path><path class="cls-15" d="M197.42,107a1.49,1.49,0,0,0-1-1.25h0l-2.66-.8a1.27,1.27,0,0,0-1,.15l-83,48A2.92,2.92,0,0,0,108.5,156l10.2,53.88,2.66.8,86.25-49.79-.25-1.34-.27-.36-9.35-49.74.06-.44Z"></path><path class="cls-30" d="M209.52,171l-1.91-10.1-86.25,49.79,1.91,10.1c.21,1.11,1.1,1.59,2,1.08l83.06-48A2.91,2.91,0,0,0,209.52,171Z"></path><path class="cls-31" d="M197.42,107c-.21-1.1-1.1-1.59-2-1.09l-83,48a2.93,2.93,0,0,0-1.22,2.93l10.19,53.88,86.25-49.79-.25-1.34-.25-.26-9.36-49.92.05-.36Z"></path><path class="cls-32" d="M111.45,156.93a3,3,0,0,1,1.22-2.93l83.06-47.95a1.32,1.32,0,0,1,1-.17,1.24,1.24,0,0,0-1.27,0l-83,48a2.93,2.93,0,0,0-1.22,2.93l10.19,53.88.24-.13Z"></path><polygon class="cls-2" points="121.11 209.37 207.36 159.57 197.8 109.03 111.55 158.82 121.11 209.37"></polygon><polygon class="cls-3" points="154.75 144.78 199.63 118.83 207.35 159.57 162.47 185.51 160.65 186.57 133.21 202.41 121.13 209.38 113.41 168.64 154.75 144.78"></polygon><polygon class="cls-33" points="199.63 118.83 154.75 144.78 162.47 185.51 207.35 159.57 199.63 118.83"></polygon><polygon class="cls-3" points="186.09 129.65 168.53 139.69 175.36 175.7 192.92 165.66 186.09 129.65"></polygon><path class="cls-34" d="M158.79,156.2l9-5.2a.33.33,0,0,1,.5.27.71.71,0,0,1-.31.73l-9,5.19c-.22.14-.44,0-.5-.26A.75.75,0,0,1,158.79,156.2Z"></path><path class="cls-34" d="M158.21,153.11l9-5.19c.22-.13.44,0,.5.26a.76.76,0,0,1-.32.74l-9,5.19c-.23.13-.45,0-.5-.27A.73.73,0,0,1,158.21,153.11Z"></path><path class="cls-34" d="M157.62,150l9-5.19c.22-.14.45,0,.5.26a.75.75,0,0,1-.31.73l-9,5.2c-.22.13-.45,0-.5-.27A.75.75,0,0,1,157.62,150Z"></path><path class="cls-34" d="M157,146.93l9-5.19c.23-.14.45,0,.5.26a.7.7,0,0,1-.31.73l-9,5.2c-.23.13-.45,0-.51-.27A.74.74,0,0,1,157,146.93Z"></path><polygon class="cls-34" points="197.77 109.03 111.55 158.84 113.41 168.64 154.75 144.78 199.63 118.83 197.77 109.03"></polygon><path class="cls-3" d="M116.36,159.76l74.28-42.89c.4-.24.81,0,.9.48l.22,1.13a1.35,1.35,0,0,1-.56,1.33L116.92,162.7a.59.59,0,0,1-.91-.48l-.21-1.13A1.32,1.32,0,0,1,116.36,159.76Z"></path><path class="cls-3" d="M194.5,115.41l1.71-1a.09.09,0,0,1,.15.08.21.21,0,0,1-.09.22l-1.72,1c-.06,0-.13,0-.15-.08A.23.23,0,0,1,194.5,115.41Z"></path><path class="cls-3" d="M196.38,115.27c.06,0,.13,0,.15.08a.24.24,0,0,1-.1.23l-1.71,1a.11.11,0,0,1-.16-.08.24.24,0,0,1,.1-.23Z"></path><path class="cls-3" d="M196.54,116.12c.06,0,.13,0,.15.09a.23.23,0,0,1-.1.22l-1.71,1a.1.1,0,0,1-.15-.08.2.2,0,0,1,.09-.22Z"></path><path class="cls-33" d="M131.48,189l26-15a.59.59,0,0,1,.91.48l2.3,12.11-27.44,15.84-2.3-12.11A1.34,1.34,0,0,1,131.48,189Z"></path><path class="cls-33" d="M156.28,167.87l-26,15a.59.59,0,0,1-.91-.48l-3.16-16.67a1.34,1.34,0,0,1,.57-1.33l26-15c.4-.24.81,0,.9.48l3.17,16.67A1.34,1.34,0,0,1,156.28,167.87Z"></path><path class="cls-33" d="M125.29,181a1,1,0,0,1-1.56-.83,2.3,2.3,0,0,1,1-2.29,1,1,0,0,1,1.56.82A2.3,2.3,0,0,1,125.29,181Z"></path><path class="cls-33" d="M124.78,185.67a2.29,2.29,0,0,1,1-2.29,1,1,0,0,1,1.56.83,2.29,2.29,0,0,1-1,2.29A1,1,0,0,1,124.78,185.67Z"></path><path class="cls-33" d="M128.89,200a1,1,0,0,1,1.57.83,2.33,2.33,0,0,1-1,2.29,1,1,0,0,1-1.57-.83A2.31,2.31,0,0,1,128.89,200Z"></path><path class="cls-33" d="M123.2,169.92a1,1,0,0,1-1.57-.82,2.31,2.31,0,0,1,1-2.29c.69-.41,1.39,0,1.56.82A2.3,2.3,0,0,1,123.2,169.92Z"></path><path class="cls-33" d="M115.38,172.43l4.61-2.66a.16.16,0,0,1,.25.13.37.37,0,0,1-.15.37l-4.62,2.66a.16.16,0,0,1-.25-.13A.36.36,0,0,1,115.38,172.43Z"></path><path class="cls-33" d="M124.24,175.45a1,1,0,0,1-1.56-.83,2.31,2.31,0,0,1,1-2.29,1,1,0,0,1,1.57.83A2.32,2.32,0,0,1,124.24,175.45Z"></path><path class="cls-33" d="M116.42,178l4.62-2.67a.17.17,0,0,1,.25.14.37.37,0,0,1-.15.37l-4.62,2.66a.16.16,0,0,1-.25-.13A.36.36,0,0,1,116.42,178Z"></path><path class="cls-33" d="M117.47,183.49l4.62-2.67c.11-.07.22,0,.25.13a.36.36,0,0,1-.16.37L117.57,184a.17.17,0,0,1-.26-.14A.37.37,0,0,1,117.47,183.49Z"></path><path class="cls-33" d="M118.52,189l4.62-2.67c.11-.06.22,0,.25.14a.37.37,0,0,1-.16.37l-4.62,2.66c-.11.07-.22,0-.25-.13A.39.39,0,0,1,118.52,189Z"></path><path class="cls-33" d="M126.8,188.91a1,1,0,0,1,1.56.83,2.31,2.31,0,0,1-1,2.29,1,1,0,0,1-1.56-.83A2.29,2.29,0,0,1,126.8,188.91Z"></path><path class="cls-33" d="M119.57,194.53l4.61-2.66c.12-.07.23,0,.26.13a.4.4,0,0,1-.16.37L119.66,195c-.11.06-.22,0-.25-.14A.36.36,0,0,1,119.57,194.53Z"></path><path class="cls-33" d="M127.84,194.43a1,1,0,0,1,1.57.83,2.3,2.3,0,0,1-1,2.29,1,1,0,0,1-1.57-.83A2.33,2.33,0,0,1,127.84,194.43Z"></path><path class="cls-33" d="M120.62,200.06l4.61-2.67a.17.17,0,0,1,.25.14.37.37,0,0,1-.15.37l-4.62,2.66c-.11.07-.22,0-.25-.13A.35.35,0,0,1,120.62,200.06Z"></path><path class="cls-33" d="M121.66,205.59l4.62-2.67a.16.16,0,0,1,.25.13.37.37,0,0,1-.15.37l-4.62,2.67a.16.16,0,0,1-.25-.14A.35.35,0,0,1,121.66,205.59Z"></path><path class="cls-3" d="M162.47,185.51l-1.82,1.06-2.3-12.11a.59.59,0,0,0-.91-.48l-26,15a1.34,1.34,0,0,0-.57,1.33l2.3,12.11-12.08,7-7.72-40.74,41.34-23.87Zm-33.06-3.13a.59.59,0,0,0,.91.48l26-15a1.34,1.34,0,0,0,.57-1.33l-3.17-16.67c-.09-.5-.5-.72-.9-.48l-26,15a1.34,1.34,0,0,0-.57,1.33l3.16,16.67m-4.12-1.4a2.3,2.3,0,0,0,1-2.3,1,1,0,0,0-1.56-.82,2.3,2.3,0,0,0-1,2.29,1,1,0,0,0,1.56.83m3.15,16.57a2.3,2.3,0,0,0,1-2.29,1,1,0,0,0-1.57-.83,2.33,2.33,0,0,0-1,2.29,1,1,0,0,0,1.57.83m-1-5.52a2.31,2.31,0,0,0,1-2.29,1,1,0,0,0-1.56-.83,2.29,2.29,0,0,0-1,2.29,1,1,0,0,0,1.56.83m-4.19-22.11a2.3,2.3,0,0,0,1-2.29c-.17-.86-.87-1.23-1.56-.82a2.31,2.31,0,0,0-1,2.29,1,1,0,0,0,1.57.82m1,5.53a2.32,2.32,0,0,0,1-2.29,1,1,0,0,0-1.57-.83,2.31,2.31,0,0,0-1,2.29,1,1,0,0,0,1.56.83m2.1,11.05a2.29,2.29,0,0,0,1-2.29,1,1,0,0,0-1.56-.83,2.29,2.29,0,0,0-1,2.29,1,1,0,0,0,1.56.83m3.15,16.58a2.33,2.33,0,0,0,1-2.29,1,1,0,0,0-1.57-.83,2.31,2.31,0,0,0-1,2.29,1,1,0,0,0,1.57.83m-8.78-2.52,4.62-2.66a.37.37,0,0,0,.15-.37.17.17,0,0,0-.25-.14l-4.61,2.67a.35.35,0,0,0-.16.37c0,.14.14.2.25.13m-2.1-11.05,4.62-2.66a.37.37,0,0,0,.16-.37c0-.14-.14-.2-.25-.14L118.52,189a.39.39,0,0,0-.16.37c0,.13.14.2.25.13m-2.09-11,4.62-2.66a.37.37,0,0,0,.15-.37.17.17,0,0,0-.25-.14L116.42,178a.36.36,0,0,0-.15.37.16.16,0,0,0,.25.13M119.66,195l4.62-2.67a.4.4,0,0,0,.16-.37c0-.14-.14-.2-.26-.13l-4.61,2.66a.36.36,0,0,0-.16.37c0,.14.14.2.25.14m-4.19-22.11,4.62-2.66a.37.37,0,0,0,.15-.37.16.16,0,0,0-.25-.13l-4.61,2.66a.36.36,0,0,0-.16.37.16.16,0,0,0,.25.13m2.1,11.06,4.61-2.67a.36.36,0,0,0,.16-.37c0-.14-.14-.2-.25-.13l-4.62,2.67a.37.37,0,0,0-.16.36.17.17,0,0,0,.26.14m4.19,22.1,4.62-2.67a.37.37,0,0,0,.15-.37.16.16,0,0,0-.25-.13l-4.62,2.67a.35.35,0,0,0-.15.36.16.16,0,0,0,.25.14"></path><path class="cls-34" d="M198.81,137.66c-.7.41-1.4,0-1.56-.83a2.29,2.29,0,0,1,1-2.29,1,1,0,0,1,1.56.83A2.3,2.3,0,0,1,198.81,137.66Z"></path><path class="cls-34" d="M198.29,142.36a2.32,2.32,0,0,1,1-2.29c.69-.4,1.39,0,1.56.83a2.33,2.33,0,0,1-1,2.29A1,1,0,0,1,198.29,142.36Z"></path><path class="cls-34" d="M202.41,156.65a1,1,0,0,1,1.56.82,2.3,2.3,0,0,1-1,2.29,1,1,0,0,1-1.56-.82A2.3,2.3,0,0,1,202.41,156.65Z"></path><path class="cls-34" d="M196.71,126.61a1,1,0,0,1-1.56-.83,2.29,2.29,0,0,1,1-2.28,1,1,0,0,1,1.56.82A2.29,2.29,0,0,1,196.71,126.61Z"></path><path class="cls-34" d="M188.89,129.12l4.62-2.67c.11-.06.22,0,.25.14a.36.36,0,0,1-.16.37L189,129.62c-.11.07-.22,0-.25-.13A.39.39,0,0,1,188.89,129.12Z"></path><path class="cls-34" d="M197.76,132.14a1,1,0,0,1-1.56-.83,2.3,2.3,0,0,1,1-2.29,1,1,0,0,1,1.56.83A2.29,2.29,0,0,1,197.76,132.14Z"></path><path class="cls-34" d="M189.94,134.64l4.62-2.66c.11-.07.22,0,.25.13a.39.39,0,0,1-.16.37L190,135.15c-.11.06-.22,0-.25-.14A.41.41,0,0,1,189.94,134.64Z"></path><path class="cls-34" d="M191,140.17l4.61-2.67a.17.17,0,0,1,.26.14.37.37,0,0,1-.16.36l-4.62,2.67c-.11.07-.22,0-.25-.13A.36.36,0,0,1,191,140.17Z"></path><path class="cls-34" d="M192,145.69l4.62-2.66a.17.17,0,0,1,.26.13.39.39,0,0,1-.16.37l-4.62,2.67a.17.17,0,0,1-.25-.14A.38.38,0,0,1,192,145.69Z"></path><path class="cls-34" d="M200.31,145.6a1,1,0,0,1,1.57.82,2.31,2.31,0,0,1-1,2.29c-.69.41-1.39,0-1.56-.82A2.3,2.3,0,0,1,200.31,145.6Z"></path><path class="cls-34" d="M193.08,151.22l4.62-2.67c.11-.06.22,0,.25.14a.37.37,0,0,1-.15.37l-4.62,2.66a.16.16,0,0,1-.25-.13A.37.37,0,0,1,193.08,151.22Z"></path><path class="cls-34" d="M201.36,151.12a1,1,0,0,1,1.56.83,2.29,2.29,0,0,1-1,2.29,1,1,0,0,1-1.56-.83A2.31,2.31,0,0,1,201.36,151.12Z"></path><path class="cls-34" d="M194.13,156.75l4.62-2.67c.11-.07.22,0,.25.13a.35.35,0,0,1-.16.37l-4.62,2.67c-.11.06-.22,0-.25-.14A.38.38,0,0,1,194.13,156.75Z"></path><path class="cls-34" d="M195.18,162.27l4.62-2.67c.11-.06.22,0,.25.14a.4.4,0,0,1-.16.37l-4.62,2.66c-.11.07-.22,0-.25-.13A.38.38,0,0,1,195.18,162.27Z"></path><path class="cls-35" d="M197.17,107.07l10.2,54,.24-.14L197.42,107c-.19-1-.92-1.48-1.71-1.2C196.39,105.7,197,106.18,197.17,107.07Z"></path><path class="cls-10" d="M195.34,181.4l13-7.49a2.91,2.91,0,0,0,1.21-2.91l-1.91-10.1-.25-1.34h0L197.8,109h0l-.38-2c-.21-1.1-1.1-1.59-2-1.09l-61.1,35.28Z"></path><path class="cls-36" d="M24.58,98c11.4-6.57,20.67-1.29,20.7,11.8,0,11.08-6.57,24.18-15.51,31.95l-5,13-5.07-7.14c-9,2.57-15.6-2.88-15.64-14C4,120.5,13.2,104.56,24.58,98Z"></path><path class="cls-3" d="M37.65,109.88a3.46,3.46,0,0,0-.13-.67,1.22,1.22,0,0,0-.11-.49c-.46-1.21-1.67-1.58-3.12-.75l-17.2,9.93a7.4,7.4,0,0,0-3.1,4.34,2.1,2.1,0,0,0-.1.62,6.46,6.46,0,0,0-.13.81l0,11.34c0,2.13,1.52,3,3.36,1.92L34.35,127a7.37,7.37,0,0,0,3.33-5.78ZM34,111.15,26.6,121.34a2.93,2.93,0,0,1-.87.78,1.35,1.35,0,0,1-.88.23l-7.47-1.59ZM34.34,124l-17.2,9.92c-.4.23-.72,0-.72-.42l0-9.28,7,1.48a3.46,3.46,0,0,0,2.37-.56A7.84,7.84,0,0,0,28.09,123L35,113.44l0,9.29A1.62,1.62,0,0,1,34.34,124Z"></path><path class="cls-37" d="M42.45,91.48a12.31,12.31,0,0,0-5.57,9.66c0,3.54,2.52,5,5.61,3.19a12.28,12.28,0,0,0,5.58-9.66C48.06,91.13,45.55,89.7,42.45,91.48Z"></path><path class="cls-3" d="M44.59,98.58,42.3,99.91l1.1-2a6.34,6.34,0,0,0,1-2.67c0-1-.78-1.19-1.86-.56a7.33,7.33,0,0,0-2.2,2.21l.52.84a5.24,5.24,0,0,1,1.48-1.65c.39-.22.62-.14.62.22a3.66,3.66,0,0,1-.52,1.37l-1.93,3.49v1l4.07-2.35Z"></path><path class="cls-38" d="M217.74,312.25s-10.54-.41-13.7-1.12-6.86-3.2-8.26-2.94c-2,.38-4.32,2.75-3.12,7.21,1,3.54,7.42,6.44,10.63,8.1s7.45,4.17,11,5.29,6.33.75,8-.29,2.7-2,2.7-3.16.34-11,.34-11Z"></path><path class="cls-39" d="M217.91,310.17s-10.54-.42-13.71-1.13-4.72-1.79-6.12-1.54c-2,.38-5.71,1.46-4.5,5.92,1,3.54,6.67,6.33,9.87,8s7.46,4.17,11,5.29,6.34.75,8-.29,2.71-2,2.71-3.17.33-11,.33-11Z"></path><path class="cls-40" d="M198.08,307.5c-2,.38-5.71,1.46-4.5,5.92a8.34,8.34,0,0,0,3.22,4.06c5.15-4.11,6-7.21,6-8.8C200.55,308,199.25,307.29,198.08,307.5Z"></path><path class="cls-41" d="M230.35,256.15s-4.5,5.64-8,19.64-8.78,35.63-8.78,35.63,1.25,5.67,6.25,6.08,6.25-2.1,6.25-2.1,8.84-20.87,13-30.86,3.08-14.75,3.08-14.75Z"></path><path class="cls-38" d="M196.6,322.15s-10.55-.42-13.71-1.13-6.86-3.19-8.26-2.93c-2,.37-4.32,2.74-3.12,7.2,1,3.54,7.42,6.44,10.63,8.11s7.46,4.16,11,5.29,6.33.75,8-.29,2.71-2,2.71-3.17.33-11,.33-11Z"></path><path class="cls-39" d="M196.76,320.06s-10.54-.41-13.71-1.12-4.72-1.8-6.12-1.54c-2,.37-5.71,1.45-4.5,5.91,1,3.54,6.67,6.34,9.88,8s7.45,4.17,11,5.29,6.33.75,8-.29,2.7-2,2.7-3.16.34-11,.34-11Z"></path><path class="cls-40" d="M176.93,317.4c-2,.37-5.71,1.45-4.5,5.91a8.4,8.4,0,0,0,3.22,4.06c5.15-4.11,6-7.2,6-8.8C179.4,317.91,178.1,317.18,176.93,317.4Z"></path><path class="cls-42" d="M209.2,266s-4.5,5.65-8,19.65-8.78,35.62-8.78,35.62,1.25,5.68,6.25,6.09,6.25-2.11,6.25-2.11,8.84-20.87,13-30.86S221,279.69,221,279.69Z"></path><polygon class="cls-43" points="322.51 301.82 330.03 362.47 323.88 366.02 316.36 305.39 322.51 301.82"></polygon><polygon class="cls-44" points="316.36 305.39 323.88 366.02 318.9 363.15 312.04 307.87 316.36 305.39"></polygon><polygon class="cls-14" points="322.51 295.44 322.51 301.82 271.31 331.68 271.31 325.29 322.51 295.44"></polygon><polygon class="cls-43" points="277.47 328.13 284.98 388.76 278.82 392.31 271.31 331.68 277.47 328.13"></polygon><polygon class="cls-11" points="260.81 259.81 209.61 289.66 271.31 325.29 322.51 295.44 260.81 259.81"></polygon><polygon class="cls-44" points="271.31 331.68 278.82 392.31 273.86 389.44 266.33 328.81 271.31 331.68"></polygon><polygon class="cls-12" points="271.31 325.29 271.31 331.68 209.61 296.05 209.61 289.66 271.31 325.29"></polygon><polygon class="cls-45" points="209.61 289.66 209.61 290.66 271.31 326.29 322.51 296.44 322.51 295.44 271.31 325.29 209.61 289.66"></polygon><polygon class="cls-43" points="224.03 304.39 224.03 353.57 217.87 357.13 217.87 300.83 224.03 304.38 224.03 304.39"></polygon><polygon class="cls-44" points="217.87 300.83 217.87 357.13 212.4 353.97 212.4 297.67 217.87 300.83"></polygon><path class="cls-46" d="M244.45,210.48s-2.18-1.57-2.82-2a4.93,4.93,0,0,0-2.13-.86c-.74-.07-2.87-.33-3.48-.49s-1.82-.67-2-.49a2.32,2.32,0,0,0,1.77,2.57c1.83.6,2.79.46,3.51.82s3.36,2.44,3.36,2.44Z"></path><path class="cls-47" d="M242.71,210.88l-3.6-1.91a5.08,5.08,0,0,0-2.33-.72c-.79,0-3.06-.09-3.72-.22s-2-.54-2.17-.34.1,2.09,2.09,2.56,3,.24,3.77.56,3.78,2.29,3.78,2.29Z"></path><path class="cls-48" d="M241.11,212.29l-4-1.74a5.61,5.61,0,0,0-2.55-.59c-.85.06-3.29.16-4,.09s-2.18-.43-2.36-.19.29,2.23,2.46,2.57,3.22,0,4.09.29,4.24,2.14,4.24,2.14Z"></path><path class="cls-49" d="M283.52,217.62l-2.33,5.95s-7.31-1.89-11.4-2.58-15.74-3.82-18.05-5.16-6.86-5-7.29-5.35-1.52-1.15-2-.86a13,13,0,0,0-5.29,6.74c.66,1.31,3.22,2.76,4.62,3.78s4.68,1.65,6.83,1.65,10.64,5,17.68,8.71a152.16,152.16,0,0,0,18.22,8c3,1,4.46.48,5.85-1.24s5.11-9.19,6.56-13.76Z"></path><path class="cls-50" d="M282,221.58a32.07,32.07,0,0,0,11,11.2,69.72,69.72,0,0,0,3.95-9.27l-13.36-5.89Z"></path><path class="cls-49" d="M240,214.54s-2.86-1.23-3.56-1.55a5,5,0,0,0-2.26-.51c-.75.05-2.92.14-3.55.08s-1.93-.38-2.1-.17a2.35,2.35,0,0,0,2.18,2.28c1.93.3,2.86,0,3.63.25s3.75,1.9,3.75,1.9Z"></path><path class="cls-51" d="M237.37,216.74c.87,1.16,3,2.4,4.25,3.31,1.38-1.37,2.46-2.86,1.35-3.39C241.06,215.77,238.21,216.49,237.37,216.74Z"></path><path class="cls-49" d="M244.72,221.25s-2.89-.3-4.65-.32a6.43,6.43,0,0,1-3.07-.52c-.76-.34-1.85-1.46-2.42-1.69s-1.89-.62-1.85-1.07,1.73-1.3,3.34-.7,2,1,2.73.8,2-1.51,4-1.14S246,220,244.72,221.25Z"></path><path class="cls-49" d="M293.26,150.81c-7.89-.33-12.25,3.31-14.5,10.69s-.81,8.56-2.62,12.5-1.31,7.31.31,11.62,2.31,6.25,3.81,6.25a41.16,41.16,0,0,0,5.88-1.12L302,188.5s6.5-6,8.44-19.75C312.36,155.17,303.7,151.25,293.26,150.81Z"></path><path class="cls-52" d="M286.64,186.75s.37,11.25-3.38,17.31-5.5,6.44-5.5,6.44,11,5.75,21.16,1.37a16.34,16.34,0,0,0,10.16-14.25s-8.13-.56-5.69-14.56l-13.13-2.31A7.06,7.06,0,0,0,286.64,186.75Z"></path><path class="cls-53" d="M280.7,166.75s-.25,2.75.94,4.25,2.81,1.44,2.94,3.44a39.57,39.57,0,0,1,0,4.06l1.87.62a9.64,9.64,0,0,1,1.41-4.22c1.24-1.84,3.7-1.09,4.15,1.54s-1.12,6.54-4.66,8.37c0,4.67,1.25,6.84,1.45,6.59s.63-.8.63-.8a14.81,14.81,0,0,0,7.33,2.67s4.92-1,6.5-3.87c0,0,.8,1.12,1.13,1.2s5.33-6.12,6.58-9.37c1,1.54,1.63,1.46,1.67,1.21a22.61,22.61,0,0,1,1.33-7.88c1.58-4.79,3.13-10.41-1.71-15.75-.21-5.75-7.79-12.25-14.66-11.58s-10,1.44-11.67,0-2.62-3-2.79-2.49-2.29,2.87-.58,5.12c-3.34,1-4.92,1.84-6.3,4.84s-2.83,1.58-3.2,2.08.07,3,1.93,3.25c-1.39,3-1.39,7.42,4.23,8.54A2.44,2.44,0,0,1,280.7,166.75Z"></path><path class="cls-41" d="M297.7,277.65s7.66,23.67-9.84,20c-15.35-3.23-49-21.32-54-24.65s-7.71-6.33-6.52-11.17,4.89-8.5,8.87-8.5,50.24,13.84,50.24,13.84Z"></path><path class="cls-42" d="M297.7,295.44S286.47,310.67,269,307c-15.34-3.23-50.49-21.67-55.49-25s-7.71-6.33-6.52-11.17,4.89-8.5,8.87-8.5,50.24,13.84,50.24,13.84Z"></path><path class="cls-39" d="M283.26,204.06s-6.93,6.19-9.43,8.13-9,6.81-9.88,16.75.56,33.68-2.37,43.12-4.94,9.5-3.38,15,9.69,12.94,23.06,14.56,22.19-5,23.88-16.25,4.25-32.31,6-42.5,7.25-25.81,6.17-34.06-6.67-12.75-7.5-12.75-.67,2.5-7.59,4.5S287.39,202,283.26,204.06Z"></path><path class="cls-54" d="M289.2,216.23c3.5,5.27,15,12.71,21.31,11.27a13.23,13.23,0,0,0,4.72-2.16c1.48-6.29,2.62-12.35,2.08-16.53a22.1,22.1,0,0,0-.45-2.29l-38.14,3C283.39,209.69,285.7,211,289.2,216.23Z"></path><path class="cls-54" d="M262.74,266c9.38-6.85,16-20.69,17.52-31.39l-16.64,4.05C263.55,247.38,263.67,258.26,262.74,266Z"></path><path class="cls-54" d="M310.26,192.87s-1.18-.71-5.71,1.71c0,0-.91,6-12.72,8,11.18,4.75,23,2.82,23.69-.81S314.45,192.56,310.26,192.87Z"></path><path class="cls-39" d="M276.53,210s1.33-6.26,5.44-8.14,9.6-2.5,16.95-1.12,14.16,1,14.72-.75-1.06-6.5-3.38-7.07c0,0,2.94-1.5,4.82.94s2.37,9.69,3.5,14.19-.88,12.12-6.13,14.25-13.12-.56-18.69-5.25S282.67,207.91,276.53,210Z"></path><path class="cls-55" d="M221.94,233.81s-.89-2.77-1.27-4.49a6.4,6.4,0,0,0-1.15-2.9c-.48-.67-1.8-1.51-2.15-2s-1-1.72-1.42-1.58-.92,2,0,3.41,1.34,1.77,1.34,2.5-1,2.31-.3,4.11S221,235.31,221.94,233.81Z"></path><path class="cls-49" d="M256.89,236.16l-3.62,6s-7.31-1.88-11.39-2.58-15.75-3.82-18.06-5.16-6.29-7.47-6.72-7.79-1.52-1.15-2-.86c-2.85,1.56-5.54,7.79-5.86,9.19.66,1.3,3.22,2.76,4.62,3.77s4.68,1.66,6.83,1.66,10.64,5,17.68,8.71a153.37,153.37,0,0,0,18.22,8c3,1,4.46.48,5.86-1.23s5.1-9.19,6.55-13.76Z"></path><path class="cls-56" d="M223.67,237.49a12.25,12.25,0,0,0-.55,3.6l1.92,1a13.32,13.32,0,0,1,1.05-3.82Z"></path><path class="cls-57" d="M228.82,237.12c-.19,1.06-1.63,1.69-3.22,1.42s-2.73-1.36-2.54-2.42,1.62-1.69,3.21-1.42S229,236.06,228.82,237.12Z"></path><path class="cls-58" d="M228.31,236.83c-.15.87-1.33,1.4-2.64,1.17s-2.25-1.12-2.1-2,1.34-1.39,2.64-1.17S228.46,236,228.31,236.83Z"></path><path class="cls-49" d="M215.82,225.78,212.37,224a5,5,0,0,0-2.22-.66c-.75,0-2.92-.06-3.55-.17s-1.9-.5-2.08-.3a2.34,2.34,0,0,0,2,2.42c1.9.43,2.85.2,3.6.49s3.62,2.14,3.62,2.14Z"></path><path class="cls-49" d="M214.15,227.9l-4-1.75a5.47,5.47,0,0,0-2.55-.58c-.85.05-3.29.15-4,.08s-2.18-.42-2.36-.19.29,2.23,2.46,2.58,3.23,0,4.09.28,4.24,2.14,4.24,2.14Z"></path><path class="cls-49" d="M212.5,230.5l-3.88-1.25a5.31,5.31,0,0,0-2.42-.3c-.78.13-3,.44-3.7.44s-2.05-.2-2.2,0a2.45,2.45,0,0,0,2.51,2.16c2,.11,3-.29,3.81-.11s4.12,1.59,4.12,1.59Z"></path><path class="cls-49" d="M212.73,233.23l-3.74-.87a5,5,0,0,0-2.3-.1c-.72.18-2.81.66-3.44.71s-1.94,0-2.07.21a2.34,2.34,0,0,0,2.53,1.83c1.93,0,2.79-.5,3.58-.4s4,1.17,4,1.17Z"></path><path class="cls-39" d="M269.37,216.23s-5.48,7.08-8.11,11-8.81,13.31-8.81,13.31-1.87-.87-2.62-.5a4.71,4.71,0,0,0-1.25.94s-5.25-1.66-5.87-1.65a2,2,0,0,0-2.22,1.65,49.91,49.91,0,0,0-1.73,8.73,2.56,2.56,0,0,0,1.73,1.58l6.44,2.38s-.38,1,.92,1.83,4.83,2,6.75,3,4.7,2.17,6.12.5,4-4.08,6.08-6.79,11.84-8.3,13.59-18.3S275,210.06,269.37,216.23Z"></path><polygon class="cls-43" points="337.17 213.12 316.16 296.19 311.63 298.8 326.9 238.67 332.65 215.73 337.17 213.12"></polygon><polygon class="cls-43" points="337.17 213.12 332.65 215.73 329 213.62 333.52 211.01 337.17 213.12"></polygon><polygon class="cls-44" points="332.65 215.73 311.63 298.8 307.98 296.69 329 213.62 332.65 215.73"></polygon><polygon class="cls-59" points="320.72 262.89 317.06 277.31 280.78 298.26 284.44 283.84 320.72 262.89"></polygon><polygon class="cls-45" points="320.53 263.63 320.72 262.89 284.44 283.84 284.26 284.57 320.53 263.63"></polygon><polygon class="cls-60" points="320.72 262.89 284.44 283.84 280.78 281.73 317.06 260.78 320.72 262.89"></polygon><polygon class="cls-59" points="326.68 239.31 323.03 253.73 286.75 274.68 290.41 260.25 326.68 239.31"></polygon><polygon class="cls-45" points="326.5 240.04 326.68 239.31 290.41 260.25 290.22 260.99 326.5 240.04"></polygon><polygon class="cls-60" points="326.68 239.31 290.41 260.25 286.75 258.15 323.03 237.2 326.68 239.31"></polygon><polygon class="cls-59" points="332.65 215.73 329 230.15 292.71 251.09 296.37 236.67 332.65 215.73"></polygon><polygon class="cls-45" points="332.46 216.46 332.65 215.73 296.37 236.67 296.19 237.41 332.46 216.46"></polygon><polygon class="cls-60" points="332.65 215.73 296.37 236.67 292.71 234.57 329 213.62 332.65 215.73"></polygon><polygon class="cls-43" points="296.37 236.67 290.61 259.62 275.36 319.75 270.83 322.37 286.1 262.23 291.85 239.29 296.37 236.67"></polygon><polygon class="cls-43" points="296.37 236.67 291.85 239.29 288.2 237.17 292.71 234.57 296.37 236.67"></polygon><polygon class="cls-44" points="291.85 239.29 270.83 322.37 267.18 320.25 288.2 237.17 291.85 239.29"></polygon><path class="cls-4" d="M216.44,8.1C209,12.41,202.94,21.52,203,28.42c0,6,4.56,8.45,10.78,6a25.43,25.43,0,0,1-1.82,3.41,1.59,1.59,0,0,0-.27,1.31c.14.34.47.42.93.16a24.32,24.32,0,0,0,9-10.09c5.12-4.9,8.4-11.3,8.38-16.45C230,5.91,223.89,3.8,216.44,8.1Z"></path></g></g></g></svg> 